<?xml version="1.0" encoding="UTF-8" standalone="no"?>
<!DOCTYPE svg PUBLIC "-//W3C//DTD SVG 1.1//EN"
 "http://www.w3.org/Graphics/SVG/1.1/DTD/svg11.dtd">
<!-- Generated by graphviz version 2.40.1 (20161225.0304)
 -->
<!-- Title: %3 Pages: 1 -->
<svg width="485pt" height="1113pt"
 viewBox="0.00 0.00 485.00 1113.00" xmlns="http://www.w3.org/2000/svg" xmlns:xlink="http://www.w3.org/1999/xlink">
<g id="graph0" class="graph" transform="scale(1 1) rotate(0) translate(4 1109)">
<title>%3</title>
<polygon fill="#ffffff" stroke="transparent" points="-4,4 -4,-1109 481,-1109 481,4 -4,4"/>
<!-- 2eea00002eea:[unknown] -->
<g id="node1" class="node">
<title>2eea00002eea:[unknown]</title>
<polygon fill="#0c658a" stroke="#0c658a" points="150,-1105 70,-1105 70,-1053 150,-1053 150,-1105"/>
<text text-anchor="middle" x="110" y="-1093" font-family="Arial" font-size="10.00" fill="#ffffff">[unknown]</text>
<text text-anchor="middle" x="110" y="-1082" font-family="Arial" font-size="10.00" fill="#ffffff">2eea00002eea</text>
<text text-anchor="middle" x="110" y="-1071" font-family="Arial" font-size="10.00" fill="#ffffff">17.65%</text>
<text text-anchor="middle" x="110" y="-1060" font-family="Arial" font-size="10.00" fill="#ffffff">(0.00%)</text>
</g>
<!-- entry_SYSCALL_64_after_hwframe:[kernel.kallsyms] -->
<g id="node2" class="node">
<title>entry_SYSCALL_64_after_hwframe:[kernel.kallsyms]</title>
<polygon fill="#0c658a" stroke="#0c658a" points="195,-1024 25,-1024 25,-972 195,-972 195,-1024"/>
<text text-anchor="middle" x="110" y="-1012" font-family="Arial" font-size="10.00" fill="#ffffff">[kernel.kallsyms]</text>
<text text-anchor="middle" x="110" y="-1001" font-family="Arial" font-size="10.00" fill="#ffffff">entry_SYSCALL_64_after_hwframe</text>
<text text-anchor="middle" x="110" y="-990" font-family="Arial" font-size="10.00" fill="#ffffff">17.65%</text>
<text text-anchor="middle" x="110" y="-979" font-family="Arial" font-size="10.00" fill="#ffffff">(0.00%)</text>
</g>
<!-- 2eea00002eea:[unknown]&#45;&gt;entry_SYSCALL_64_after_hwframe:[kernel.kallsyms] -->
<g id="edge1" class="edge">
<title>2eea00002eea:[unknown]&#45;&gt;entry_SYSCALL_64_after_hwframe:[kernel.kallsyms]</title>
<path fill="none" stroke="#0c658a" stroke-width=".71" d="M110,-1052.9252C110,-1045.1209 110,-1036.4945 110,-1028.4358"/>
<polygon fill="#0c658a" stroke="#0c658a" stroke-width=".71" points="111.4701,-1028.2259 110,-1024.0259 108.5301,-1028.2259 111.4701,-1028.2259"/>
<text text-anchor="middle" x="127" y="-1036" font-family="Arial" font-size="10.00" fill="#0c658a">17.65%</text>
</g>
<!-- do_syscall_64:[kernel.kallsyms] -->
<g id="node24" class="node">
<title>do_syscall_64:[kernel.kallsyms]</title>
<polygon fill="#0c658a" stroke="#0c658a" points="155.5,-943 64.5,-943 64.5,-891 155.5,-891 155.5,-943"/>
<text text-anchor="middle" x="110" y="-931" font-family="Arial" font-size="10.00" fill="#ffffff">[kernel.kallsyms]</text>
<text text-anchor="middle" x="110" y="-920" font-family="Arial" font-size="10.00" fill="#ffffff">do_syscall_64</text>
<text text-anchor="middle" x="110" y="-909" font-family="Arial" font-size="10.00" fill="#ffffff">17.65%</text>
<text text-anchor="middle" x="110" y="-898" font-family="Arial" font-size="10.00" fill="#ffffff">(0.00%)</text>
</g>
<!-- entry_SYSCALL_64_after_hwframe:[kernel.kallsyms]&#45;&gt;do_syscall_64:[kernel.kallsyms] -->
<g id="edge17" class="edge">
<title>entry_SYSCALL_64_after_hwframe:[kernel.kallsyms]&#45;&gt;do_syscall_64:[kernel.kallsyms]</title>
<path fill="none" stroke="#0c658a" stroke-width=".71" d="M110,-971.9252C110,-964.1209 110,-955.4945 110,-947.4358"/>
<polygon fill="#0c658a" stroke="#0c658a" stroke-width=".71" points="111.4701,-947.2259 110,-943.0259 108.5301,-947.2259 111.4701,-947.2259"/>
<text text-anchor="middle" x="127" y="-955" font-family="Arial" font-size="10.00" fill="#0c658a">17.65%</text>
</g>
<!-- __intel_pmu_enable_all.constprop.19:[kernel.kallsyms] -->
<g id="node3" class="node">
<title>__intel_pmu_enable_all.constprop.19:[kernel.kallsyms]</title>
<polygon fill="#0c5486" stroke="#0c5486" points="225.5,-133 48.5,-133 48.5,-81 225.5,-81 225.5,-133"/>
<text text-anchor="middle" x="137" y="-121" font-family="Arial" font-size="10.00" fill="#ffffff">[kernel.kallsyms]</text>
<text text-anchor="middle" x="137" y="-110" font-family="Arial" font-size="10.00" fill="#ffffff">__intel_pmu_enable_all.constprop.19</text>
<text text-anchor="middle" x="137" y="-99" font-family="Arial" font-size="10.00" fill="#ffffff">14.71%</text>
<text text-anchor="middle" x="137" y="-88" font-family="Arial" font-size="10.00" fill="#ffffff">(0.00%)</text>
</g>
<!-- native_sched_clock:[kernel.kallsyms] -->
<g id="node4" class="node">
<title>native_sched_clock:[kernel.kallsyms]</title>
<polygon fill="#0d1977" stroke="#0d1977" points="109.5,-52 6.5,-52 6.5,0 109.5,0 109.5,-52"/>
<text text-anchor="middle" x="58" y="-40" font-family="Arial" font-size="10.00" fill="#ffffff">[kernel.kallsyms]</text>
<text text-anchor="middle" x="58" y="-29" font-family="Arial" font-size="10.00" fill="#ffffff">native_sched_clock</text>
<text text-anchor="middle" x="58" y="-18" font-family="Arial" font-size="10.00" fill="#ffffff">2.94%</text>
<text text-anchor="middle" x="58" y="-7" font-family="Arial" font-size="10.00" fill="#ffffff">(2.94%)</text>
</g>
<!-- __intel_pmu_enable_all.constprop.19:[kernel.kallsyms]&#45;&gt;native_sched_clock:[kernel.kallsyms] -->
<g id="edge2" class="edge">
<title>__intel_pmu_enable_all.constprop.19:[kernel.kallsyms]&#45;&gt;native_sched_clock:[kernel.kallsyms]</title>
<path fill="none" stroke="#0d1977" stroke-width=".5" d="M111.5691,-80.9252C103.3936,-72.5428 94.2932,-63.2121 85.9473,-54.6549"/>
<polygon fill="#0d1977" stroke="#0d1977" stroke-width=".5" points="86.704,-53.6762 83.3833,-52.0259 84.9501,-55.3869 86.704,-53.6762"/>
<text text-anchor="middle" x="117" y="-64" font-family="Arial" font-size="10.00" fill="#0d1977">2.94%</text>
</g>
<!-- native_write_msr:[kernel.kallsyms] -->
<g id="node5" class="node">
<title>native_write_msr:[kernel.kallsyms]</title>
<polygon fill="#0d4482" stroke="#0d4482" points="248.5,-52 157.5,-52 157.5,0 248.5,0 248.5,-52"/>
<text text-anchor="middle" x="203" y="-40" font-family="Arial" font-size="10.00" fill="#ffffff">[kernel.kallsyms]</text>
<text text-anchor="middle" x="203" y="-29" font-family="Arial" font-size="10.00" fill="#ffffff">native_write_msr</text>
<text text-anchor="middle" x="203" y="-18" font-family="Arial" font-size="10.00" fill="#ffffff">11.76%</text>
<text text-anchor="middle" x="203" y="-7" font-family="Arial" font-size="10.00" fill="#ffffff">(11.76%)</text>
</g>
<!-- __intel_pmu_enable_all.constprop.19:[kernel.kallsyms]&#45;&gt;native_write_msr:[kernel.kallsyms] -->
<g id="edge3" class="edge">
<title>__intel_pmu_enable_all.constprop.19:[kernel.kallsyms]&#45;&gt;native_write_msr:[kernel.kallsyms]</title>
<path fill="none" stroke="#0d4482" stroke-width=".5" d="M158.2461,-80.9252C164.9585,-72.6873 172.4171,-63.5335 179.2904,-55.0982"/>
<polygon fill="#0d4482" stroke="#0d4482" stroke-width=".5" points="180.5325,-55.5131 181.7937,-52.0259 178.6331,-53.9654 180.5325,-55.5131"/>
<text text-anchor="middle" x="190.5" y="-64" font-family="Arial" font-size="10.00" fill="#0d4482">11.76%</text>
</g>
<!-- native_sched_clock:[kernel.kallsyms]&#45;&gt;entry_SYSCALL_64_after_hwframe:[kernel.kallsyms] -->
<g id="edge21" class="edge">
<title>native_sched_clock:[kernel.kallsyms]&#45;&gt;entry_SYSCALL_64_after_hwframe:[kernel.kallsyms]</title>
<path fill="none" stroke="#0d1977" stroke-width=".5" d="M26.9624,-52.0014C13.1725,-66.5139 0,-85.899 0,-107 0,-917 0,-917 0,-917 0,-940.0918 15.9125,-957.3355 35.6331,-969.8391"/>
<polygon fill="#0d1977" stroke="#0d1977" stroke-width=".5" points="35.4678,-971.175 39.0916,-971.9618 36.7494,-969.0869 35.4678,-971.175"/>
</g>
<!-- native_write_msr:[kernel.kallsyms]&#45;&gt;entry_SYSCALL_64_after_hwframe:[kernel.kallsyms] -->
<g id="edge22" class="edge">
<title>native_write_msr:[kernel.kallsyms]&#45;&gt;entry_SYSCALL_64_after_hwframe:[kernel.kallsyms]</title>
<path fill="none" stroke="#0d4482" stroke-width=".5" d="M221.2109,-52.0868C230.1401,-67.3687 239,-87.4562 239,-107 239,-917 239,-917 239,-917 239,-942.2052 221.1183,-959.8699 198.6701,-972.1152"/>
<polygon fill="#0d4482" stroke="#0d4482" stroke-width=".5" points="197.8482,-971.164 195.3265,-973.8828 198.9933,-973.3299 197.8482,-971.164"/>
</g>
<!-- __libc_start_main:/lib/x86_64&#45;linux&#45;gnu/libc&#45;2.27.so -->
<g id="node6" class="node">
<title>__libc_start_main:/lib/x86_64&#45;linux&#45;gnu/libc&#45;2.27.so</title>
<polygon fill="#e0b905" stroke="#e0b905" points="350.5,-1024 257.5,-1024 257.5,-972 350.5,-972 350.5,-1024"/>
<text text-anchor="middle" x="304" y="-1012" font-family="Arial" font-size="10.00" fill="#ffffff">libc&#45;2.27.so</text>
<text text-anchor="middle" x="304" y="-1001" font-family="Arial" font-size="10.00" fill="#ffffff">__libc_start_main</text>
<text text-anchor="middle" x="304" y="-990" font-family="Arial" font-size="10.00" fill="#ffffff">79.41%</text>
<text text-anchor="middle" x="304" y="-979" font-family="Arial" font-size="10.00" fill="#ffffff">(0.00%)</text>
</g>
<!-- main:/home/francesca/Documents/HPC/A2/QS/qs_perf -->
<g id="node7" class="node">
<title>main:/home/francesca/Documents/HPC/A2/QS/qs_perf</title>
<polygon fill="#e0b905" stroke="#e0b905" points="329,-943 279,-943 279,-891 329,-891 329,-943"/>
<text text-anchor="middle" x="304" y="-931" font-family="Arial" font-size="10.00" fill="#ffffff">qs_perf</text>
<text text-anchor="middle" x="304" y="-920" font-family="Arial" font-size="10.00" fill="#ffffff">main</text>
<text text-anchor="middle" x="304" y="-909" font-family="Arial" font-size="10.00" fill="#ffffff">79.41%</text>
<text text-anchor="middle" x="304" y="-898" font-family="Arial" font-size="10.00" fill="#ffffff">(0.00%)</text>
</g>
<!-- __libc_start_main:/lib/x86_64&#45;linux&#45;gnu/libc&#45;2.27.so&#45;&gt;main:/home/francesca/Documents/HPC/A2/QS/qs_perf -->
<g id="edge4" class="edge">
<title>__libc_start_main:/lib/x86_64&#45;linux&#45;gnu/libc&#45;2.27.so&#45;&gt;main:/home/francesca/Documents/HPC/A2/QS/qs_perf</title>
<path fill="none" stroke="#e0b905" stroke-width="3.18" d="M304,-971.9252C304,-965.5662 304,-958.6613 304,-951.9624"/>
<polygon fill="#e0b905" stroke="#e0b905" stroke-width="3.18" points="307.1151,-951.9259 304,-943.0259 300.8851,-951.9259 307.1151,-951.9259"/>
<text text-anchor="middle" x="321" y="-955" font-family="Arial" font-size="10.00" fill="#e0b905">79.41%</text>
</g>
<!-- quickSort:/home/francesca/Documents/HPC/A2/QS/qs_perf -->
<g id="node30" class="node">
<title>quickSort:/home/francesca/Documents/HPC/A2/QS/qs_perf</title>
<polygon fill="#e0b905" stroke="#e0b905" points="333,-862 275,-862 275,-810 333,-810 333,-862"/>
<text text-anchor="middle" x="304" y="-850" font-family="Arial" font-size="10.00" fill="#ffffff">qs_perf</text>
<text text-anchor="middle" x="304" y="-839" font-family="Arial" font-size="10.00" fill="#ffffff">quickSort</text>
<text text-anchor="middle" x="304" y="-828" font-family="Arial" font-size="10.00" fill="#ffffff">79.41%</text>
<text text-anchor="middle" x="304" y="-817" font-family="Arial" font-size="10.00" fill="#ffffff">(2.94%)</text>
</g>
<!-- main:/home/francesca/Documents/HPC/A2/QS/qs_perf&#45;&gt;quickSort:/home/francesca/Documents/HPC/A2/QS/qs_perf -->
<g id="edge20" class="edge">
<title>main:/home/francesca/Documents/HPC/A2/QS/qs_perf&#45;&gt;quickSort:/home/francesca/Documents/HPC/A2/QS/qs_perf</title>
<path fill="none" stroke="#e0b905" stroke-width="3.18" d="M304,-890.9252C304,-884.5662 304,-877.6613 304,-870.9624"/>
<polygon fill="#e0b905" stroke="#e0b905" stroke-width="3.18" points="307.1151,-870.9259 304,-862.0259 300.8851,-870.9259 307.1151,-870.9259"/>
<text text-anchor="middle" x="321" y="-874" font-family="Arial" font-size="10.00" fill="#e0b905">79.41%</text>
</g>
<!-- __mcount_internal:/lib/x86_64&#45;linux&#45;gnu/libc&#45;2.27.so -->
<g id="node8" class="node">
<title>__mcount_internal:/lib/x86_64&#45;linux&#45;gnu/libc&#45;2.27.so</title>
<polygon fill="#0c778e" stroke="#0c778e" points="358,-538 262,-538 262,-486 358,-486 358,-538"/>
<text text-anchor="middle" x="310" y="-526" font-family="Arial" font-size="10.00" fill="#ffffff">libc&#45;2.27.so</text>
<text text-anchor="middle" x="310" y="-515" font-family="Arial" font-size="10.00" fill="#ffffff">__mcount_internal</text>
<text text-anchor="middle" x="310" y="-504" font-family="Arial" font-size="10.00" fill="#ffffff">20.59%</text>
<text text-anchor="middle" x="310" y="-493" font-family="Arial" font-size="10.00" fill="#ffffff">(20.59%)</text>
</g>
<!-- _dl_catch_exception:/lib/x86_64&#45;linux&#45;gnu/ld&#45;2.27.so -->
<g id="node9" class="node">
<title>_dl_catch_exception:/lib/x86_64&#45;linux&#45;gnu/ld&#45;2.27.so</title>
<polygon fill="#0d1977" stroke="#0d1977" points="471,-700 365,-700 365,-648 471,-648 471,-700"/>
<text text-anchor="middle" x="418" y="-688" font-family="Arial" font-size="10.00" fill="#ffffff">ld&#45;2.27.so</text>
<text text-anchor="middle" x="418" y="-677" font-family="Arial" font-size="10.00" fill="#ffffff">_dl_catch_exception</text>
<text text-anchor="middle" x="418" y="-666" font-family="Arial" font-size="10.00" fill="#ffffff">2.94%</text>
<text text-anchor="middle" x="418" y="-655" font-family="Arial" font-size="10.00" fill="#ffffff">(0.00%)</text>
</g>
<!-- openaux:/lib/x86_64&#45;linux&#45;gnu/ld&#45;2.27.so -->
<g id="node10" class="node">
<title>openaux:/lib/x86_64&#45;linux&#45;gnu/ld&#45;2.27.so</title>
<polygon fill="#0d1977" stroke="#0d1977" points="447.5,-619 388.5,-619 388.5,-567 447.5,-567 447.5,-619"/>
<text text-anchor="middle" x="418" y="-607" font-family="Arial" font-size="10.00" fill="#ffffff">ld&#45;2.27.so</text>
<text text-anchor="middle" x="418" y="-596" font-family="Arial" font-size="10.00" fill="#ffffff">openaux</text>
<text text-anchor="middle" x="418" y="-585" font-family="Arial" font-size="10.00" fill="#ffffff">2.94%</text>
<text text-anchor="middle" x="418" y="-574" font-family="Arial" font-size="10.00" fill="#ffffff">(0.00%)</text>
</g>
<!-- _dl_catch_exception:/lib/x86_64&#45;linux&#45;gnu/ld&#45;2.27.so&#45;&gt;openaux:/lib/x86_64&#45;linux&#45;gnu/ld&#45;2.27.so -->
<g id="edge5" class="edge">
<title>_dl_catch_exception:/lib/x86_64&#45;linux&#45;gnu/ld&#45;2.27.so&#45;&gt;openaux:/lib/x86_64&#45;linux&#45;gnu/ld&#45;2.27.so</title>
<path fill="none" stroke="#0d1977" stroke-width=".5" d="M418,-647.9252C418,-639.8319 418,-630.8544 418,-622.5428"/>
<polygon fill="#0d1977" stroke="#0d1977" stroke-width=".5" points="419.2251,-622.5259 418,-619.0259 416.7751,-622.5259 419.2251,-622.5259"/>
<text text-anchor="middle" x="432" y="-631" font-family="Arial" font-size="10.00" fill="#0d1977">2.94%</text>
</g>
<!-- _dl_map_object:/lib/x86_64&#45;linux&#45;gnu/ld&#45;2.27.so -->
<g id="node12" class="node">
<title>_dl_map_object:/lib/x86_64&#45;linux&#45;gnu/ld&#45;2.27.so</title>
<polygon fill="#0d1977" stroke="#0d1977" points="460.5,-538 375.5,-538 375.5,-486 460.5,-486 460.5,-538"/>
<text text-anchor="middle" x="418" y="-526" font-family="Arial" font-size="10.00" fill="#ffffff">ld&#45;2.27.so</text>
<text text-anchor="middle" x="418" y="-515" font-family="Arial" font-size="10.00" fill="#ffffff">_dl_map_object</text>
<text text-anchor="middle" x="418" y="-504" font-family="Arial" font-size="10.00" fill="#ffffff">2.94%</text>
<text text-anchor="middle" x="418" y="-493" font-family="Arial" font-size="10.00" fill="#ffffff">(0.00%)</text>
</g>
<!-- openaux:/lib/x86_64&#45;linux&#45;gnu/ld&#45;2.27.so&#45;&gt;_dl_map_object:/lib/x86_64&#45;linux&#45;gnu/ld&#45;2.27.so -->
<g id="edge23" class="edge">
<title>openaux:/lib/x86_64&#45;linux&#45;gnu/ld&#45;2.27.so&#45;&gt;_dl_map_object:/lib/x86_64&#45;linux&#45;gnu/ld&#45;2.27.so</title>
<path fill="none" stroke="#0d1977" stroke-width=".5" d="M418,-566.9252C418,-558.8319 418,-549.8544 418,-541.5428"/>
<polygon fill="#0d1977" stroke="#0d1977" stroke-width=".5" points="419.2251,-541.5259 418,-538.0259 416.7751,-541.5259 419.2251,-541.5259"/>
<text text-anchor="middle" x="432" y="-550" font-family="Arial" font-size="10.00" fill="#0d1977">2.94%</text>
</g>
<!-- _dl_load_cache_lookup:/lib/x86_64&#45;linux&#45;gnu/ld&#45;2.27.so -->
<g id="node11" class="node">
<title>_dl_load_cache_lookup:/lib/x86_64&#45;linux&#45;gnu/ld&#45;2.27.so</title>
<polygon fill="#0d1977" stroke="#0d1977" points="477,-457 359,-457 359,-405 477,-405 477,-457"/>
<text text-anchor="middle" x="418" y="-445" font-family="Arial" font-size="10.00" fill="#ffffff">ld&#45;2.27.so</text>
<text text-anchor="middle" x="418" y="-434" font-family="Arial" font-size="10.00" fill="#ffffff">_dl_load_cache_lookup</text>
<text text-anchor="middle" x="418" y="-423" font-family="Arial" font-size="10.00" fill="#ffffff">2.94%</text>
<text text-anchor="middle" x="418" y="-412" font-family="Arial" font-size="10.00" fill="#ffffff">(2.94%)</text>
</g>
<!-- _dl_map_object:/lib/x86_64&#45;linux&#45;gnu/ld&#45;2.27.so&#45;&gt;_dl_load_cache_lookup:/lib/x86_64&#45;linux&#45;gnu/ld&#45;2.27.so -->
<g id="edge6" class="edge">
<title>_dl_map_object:/lib/x86_64&#45;linux&#45;gnu/ld&#45;2.27.so&#45;&gt;_dl_load_cache_lookup:/lib/x86_64&#45;linux&#45;gnu/ld&#45;2.27.so</title>
<path fill="none" stroke="#0d1977" stroke-width=".5" d="M418,-485.9252C418,-477.8319 418,-468.8544 418,-460.5428"/>
<polygon fill="#0d1977" stroke="#0d1977" stroke-width=".5" points="419.2251,-460.5259 418,-457.0259 416.7751,-460.5259 419.2251,-460.5259"/>
<text text-anchor="middle" x="432" y="-469" font-family="Arial" font-size="10.00" fill="#0d1977">2.94%</text>
</g>
<!-- _dl_map_object_deps:/lib/x86_64&#45;linux&#45;gnu/ld&#45;2.27.so -->
<g id="node13" class="node">
<title>_dl_map_object_deps:/lib/x86_64&#45;linux&#45;gnu/ld&#45;2.27.so</title>
<polygon fill="#0d1977" stroke="#0d1977" points="473.5,-781 362.5,-781 362.5,-729 473.5,-729 473.5,-781"/>
<text text-anchor="middle" x="418" y="-769" font-family="Arial" font-size="10.00" fill="#ffffff">ld&#45;2.27.so</text>
<text text-anchor="middle" x="418" y="-758" font-family="Arial" font-size="10.00" fill="#ffffff">_dl_map_object_deps</text>
<text text-anchor="middle" x="418" y="-747" font-family="Arial" font-size="10.00" fill="#ffffff">2.94%</text>
<text text-anchor="middle" x="418" y="-736" font-family="Arial" font-size="10.00" fill="#ffffff">(0.00%)</text>
</g>
<!-- _dl_map_object_deps:/lib/x86_64&#45;linux&#45;gnu/ld&#45;2.27.so&#45;&gt;_dl_catch_exception:/lib/x86_64&#45;linux&#45;gnu/ld&#45;2.27.so -->
<g id="edge7" class="edge">
<title>_dl_map_object_deps:/lib/x86_64&#45;linux&#45;gnu/ld&#45;2.27.so&#45;&gt;_dl_catch_exception:/lib/x86_64&#45;linux&#45;gnu/ld&#45;2.27.so</title>
<path fill="none" stroke="#0d1977" stroke-width=".5" d="M418,-728.9252C418,-720.8319 418,-711.8544 418,-703.5428"/>
<polygon fill="#0d1977" stroke="#0d1977" stroke-width=".5" points="419.2251,-703.5259 418,-700.0259 416.7751,-703.5259 419.2251,-703.5259"/>
<text text-anchor="middle" x="432" y="-712" font-family="Arial" font-size="10.00" fill="#0d1977">2.94%</text>
</g>
<!-- _dl_start:/lib/x86_64&#45;linux&#45;gnu/ld&#45;2.27.so -->
<g id="node14" class="node">
<title>_dl_start:/lib/x86_64&#45;linux&#45;gnu/ld&#45;2.27.so</title>
<polygon fill="#0d1977" stroke="#0d1977" points="447.5,-1024 388.5,-1024 388.5,-972 447.5,-972 447.5,-1024"/>
<text text-anchor="middle" x="418" y="-1012" font-family="Arial" font-size="10.00" fill="#ffffff">ld&#45;2.27.so</text>
<text text-anchor="middle" x="418" y="-1001" font-family="Arial" font-size="10.00" fill="#ffffff">_dl_start</text>
<text text-anchor="middle" x="418" y="-990" font-family="Arial" font-size="10.00" fill="#ffffff">2.94%</text>
<text text-anchor="middle" x="418" y="-979" font-family="Arial" font-size="10.00" fill="#ffffff">(0.00%)</text>
</g>
<!-- _dl_sysdep_start:/lib/x86_64&#45;linux&#45;gnu/ld&#45;2.27.so -->
<g id="node15" class="node">
<title>_dl_sysdep_start:/lib/x86_64&#45;linux&#45;gnu/ld&#45;2.27.so</title>
<polygon fill="#0d1977" stroke="#0d1977" points="463.5,-943 372.5,-943 372.5,-891 463.5,-891 463.5,-943"/>
<text text-anchor="middle" x="418" y="-931" font-family="Arial" font-size="10.00" fill="#ffffff">ld&#45;2.27.so</text>
<text text-anchor="middle" x="418" y="-920" font-family="Arial" font-size="10.00" fill="#ffffff">_dl_sysdep_start</text>
<text text-anchor="middle" x="418" y="-909" font-family="Arial" font-size="10.00" fill="#ffffff">2.94%</text>
<text text-anchor="middle" x="418" y="-898" font-family="Arial" font-size="10.00" fill="#ffffff">(0.00%)</text>
</g>
<!-- _dl_start:/lib/x86_64&#45;linux&#45;gnu/ld&#45;2.27.so&#45;&gt;_dl_sysdep_start:/lib/x86_64&#45;linux&#45;gnu/ld&#45;2.27.so -->
<g id="edge8" class="edge">
<title>_dl_start:/lib/x86_64&#45;linux&#45;gnu/ld&#45;2.27.so&#45;&gt;_dl_sysdep_start:/lib/x86_64&#45;linux&#45;gnu/ld&#45;2.27.so</title>
<path fill="none" stroke="#0d1977" stroke-width=".5" d="M418,-971.9252C418,-963.8319 418,-954.8544 418,-946.5428"/>
<polygon fill="#0d1977" stroke="#0d1977" stroke-width=".5" points="419.2251,-946.5259 418,-943.0259 416.7751,-946.5259 419.2251,-946.5259"/>
<text text-anchor="middle" x="432" y="-955" font-family="Arial" font-size="10.00" fill="#0d1977">2.94%</text>
</g>
<!-- dl_main:/lib/x86_64&#45;linux&#45;gnu/ld&#45;2.27.so -->
<g id="node16" class="node">
<title>dl_main:/lib/x86_64&#45;linux&#45;gnu/ld&#45;2.27.so</title>
<polygon fill="#0d1977" stroke="#0d1977" points="447.5,-862 388.5,-862 388.5,-810 447.5,-810 447.5,-862"/>
<text text-anchor="middle" x="418" y="-850" font-family="Arial" font-size="10.00" fill="#ffffff">ld&#45;2.27.so</text>
<text text-anchor="middle" x="418" y="-839" font-family="Arial" font-size="10.00" fill="#ffffff">dl_main</text>
<text text-anchor="middle" x="418" y="-828" font-family="Arial" font-size="10.00" fill="#ffffff">2.94%</text>
<text text-anchor="middle" x="418" y="-817" font-family="Arial" font-size="10.00" fill="#ffffff">(0.00%)</text>
</g>
<!-- _dl_sysdep_start:/lib/x86_64&#45;linux&#45;gnu/ld&#45;2.27.so&#45;&gt;dl_main:/lib/x86_64&#45;linux&#45;gnu/ld&#45;2.27.so -->
<g id="edge9" class="edge">
<title>_dl_sysdep_start:/lib/x86_64&#45;linux&#45;gnu/ld&#45;2.27.so&#45;&gt;dl_main:/lib/x86_64&#45;linux&#45;gnu/ld&#45;2.27.so</title>
<path fill="none" stroke="#0d1977" stroke-width=".5" d="M418,-890.9252C418,-882.8319 418,-873.8544 418,-865.5428"/>
<polygon fill="#0d1977" stroke="#0d1977" stroke-width=".5" points="419.2251,-865.5259 418,-862.0259 416.7751,-865.5259 419.2251,-865.5259"/>
<text text-anchor="middle" x="432" y="-874" font-family="Arial" font-size="10.00" fill="#0d1977">2.94%</text>
</g>
<!-- dl_main:/lib/x86_64&#45;linux&#45;gnu/ld&#45;2.27.so&#45;&gt;_dl_map_object_deps:/lib/x86_64&#45;linux&#45;gnu/ld&#45;2.27.so -->
<g id="edge14" class="edge">
<title>dl_main:/lib/x86_64&#45;linux&#45;gnu/ld&#45;2.27.so&#45;&gt;_dl_map_object_deps:/lib/x86_64&#45;linux&#45;gnu/ld&#45;2.27.so</title>
<path fill="none" stroke="#0d1977" stroke-width=".5" d="M418,-809.9252C418,-801.8319 418,-792.8544 418,-784.5428"/>
<polygon fill="#0d1977" stroke="#0d1977" stroke-width=".5" points="419.2251,-784.5259 418,-781.0259 416.7751,-784.5259 419.2251,-784.5259"/>
<text text-anchor="middle" x="432" y="-793" font-family="Arial" font-size="10.00" fill="#0d1977">2.94%</text>
</g>
<!-- _mcount:/lib/x86_64&#45;linux&#45;gnu/libc&#45;2.27.so -->
<g id="node17" class="node">
<title>_mcount:/lib/x86_64&#45;linux&#45;gnu/libc&#45;2.27.so</title>
<polygon fill="#0ba164" stroke="#0ba164" points="343.5,-619 276.5,-619 276.5,-567 343.5,-567 343.5,-619"/>
<text text-anchor="middle" x="310" y="-607" font-family="Arial" font-size="10.00" fill="#ffffff">libc&#45;2.27.so</text>
<text text-anchor="middle" x="310" y="-596" font-family="Arial" font-size="10.00" fill="#ffffff">_mcount</text>
<text text-anchor="middle" x="310" y="-585" font-family="Arial" font-size="10.00" fill="#ffffff">35.29%</text>
<text text-anchor="middle" x="310" y="-574" font-family="Arial" font-size="10.00" fill="#ffffff">(14.71%)</text>
</g>
<!-- _mcount:/lib/x86_64&#45;linux&#45;gnu/libc&#45;2.27.so&#45;&gt;__mcount_internal:/lib/x86_64&#45;linux&#45;gnu/libc&#45;2.27.so -->
<g id="edge10" class="edge">
<title>_mcount:/lib/x86_64&#45;linux&#45;gnu/libc&#45;2.27.so&#45;&gt;__mcount_internal:/lib/x86_64&#45;linux&#45;gnu/libc&#45;2.27.so</title>
<path fill="none" stroke="#0c778e" stroke-width=".82" d="M310,-566.9252C310,-559.2654 310,-550.8138 310,-542.8841"/>
<polygon fill="#0c778e" stroke="#0c778e" stroke-width=".82" points="311.5751,-542.5259 310,-538.0259 308.4251,-542.5259 311.5751,-542.5259"/>
<text text-anchor="middle" x="327" y="-550" font-family="Arial" font-size="10.00" fill="#0c778e">20.59%</text>
</g>
<!-- _start:/home/francesca/Documents/HPC/A2/QS/qs_perf -->
<g id="node18" class="node">
<title>_start:/home/francesca/Documents/HPC/A2/QS/qs_perf</title>
<polygon fill="#e0b905" stroke="#e0b905" points="329,-1105 279,-1105 279,-1053 329,-1053 329,-1105"/>
<text text-anchor="middle" x="304" y="-1093" font-family="Arial" font-size="10.00" fill="#ffffff">qs_perf</text>
<text text-anchor="middle" x="304" y="-1082" font-family="Arial" font-size="10.00" fill="#ffffff">_start</text>
<text text-anchor="middle" x="304" y="-1071" font-family="Arial" font-size="10.00" fill="#ffffff">79.41%</text>
<text text-anchor="middle" x="304" y="-1060" font-family="Arial" font-size="10.00" fill="#ffffff">(0.00%)</text>
</g>
<!-- _start:/home/francesca/Documents/HPC/A2/QS/qs_perf&#45;&gt;__libc_start_main:/lib/x86_64&#45;linux&#45;gnu/libc&#45;2.27.so -->
<g id="edge11" class="edge">
<title>_start:/home/francesca/Documents/HPC/A2/QS/qs_perf&#45;&gt;__libc_start_main:/lib/x86_64&#45;linux&#45;gnu/libc&#45;2.27.so</title>
<path fill="none" stroke="#e0b905" stroke-width="3.18" d="M304,-1052.9252C304,-1046.5662 304,-1039.6613 304,-1032.9624"/>
<polygon fill="#e0b905" stroke="#e0b905" stroke-width="3.18" points="307.1151,-1032.9259 304,-1024.0259 300.8851,-1032.9259 307.1151,-1032.9259"/>
<text text-anchor="middle" x="321" y="-1036" font-family="Arial" font-size="10.00" fill="#e0b905">79.41%</text>
</g>
<!-- _start:/lib/x86_64&#45;linux&#45;gnu/ld&#45;2.27.so -->
<g id="node19" class="node">
<title>_start:/lib/x86_64&#45;linux&#45;gnu/ld&#45;2.27.so</title>
<polygon fill="#0d1977" stroke="#0d1977" points="447.5,-1105 388.5,-1105 388.5,-1053 447.5,-1053 447.5,-1105"/>
<text text-anchor="middle" x="418" y="-1093" font-family="Arial" font-size="10.00" fill="#ffffff">ld&#45;2.27.so</text>
<text text-anchor="middle" x="418" y="-1082" font-family="Arial" font-size="10.00" fill="#ffffff">_start</text>
<text text-anchor="middle" x="418" y="-1071" font-family="Arial" font-size="10.00" fill="#ffffff">2.94%</text>
<text text-anchor="middle" x="418" y="-1060" font-family="Arial" font-size="10.00" fill="#ffffff">(0.00%)</text>
</g>
<!-- _start:/lib/x86_64&#45;linux&#45;gnu/ld&#45;2.27.so&#45;&gt;_dl_start:/lib/x86_64&#45;linux&#45;gnu/ld&#45;2.27.so -->
<g id="edge12" class="edge">
<title>_start:/lib/x86_64&#45;linux&#45;gnu/ld&#45;2.27.so&#45;&gt;_dl_start:/lib/x86_64&#45;linux&#45;gnu/ld&#45;2.27.so</title>
<path fill="none" stroke="#0d1977" stroke-width=".5" d="M418,-1052.9252C418,-1044.8319 418,-1035.8544 418,-1027.5428"/>
<polygon fill="#0d1977" stroke="#0d1977" stroke-width=".5" points="419.2251,-1027.5259 418,-1024.0259 416.7751,-1027.5259 419.2251,-1027.5259"/>
<text text-anchor="middle" x="432" y="-1036" font-family="Arial" font-size="10.00" fill="#0d1977">2.94%</text>
</g>
<!-- ctx_resched:[kernel.kallsyms] -->
<g id="node20" class="node">
<title>ctx_resched:[kernel.kallsyms]</title>
<polygon fill="#0c5486" stroke="#0c5486" points="223.5,-376 132.5,-376 132.5,-324 223.5,-324 223.5,-376"/>
<text text-anchor="middle" x="178" y="-364" font-family="Arial" font-size="10.00" fill="#ffffff">[kernel.kallsyms]</text>
<text text-anchor="middle" x="178" y="-353" font-family="Arial" font-size="10.00" fill="#ffffff">ctx_resched</text>
<text text-anchor="middle" x="178" y="-342" font-family="Arial" font-size="10.00" fill="#ffffff">14.71%</text>
<text text-anchor="middle" x="178" y="-331" font-family="Arial" font-size="10.00" fill="#ffffff">(0.00%)</text>
</g>
<!-- x86_pmu_enable:[kernel.kallsyms] -->
<g id="node21" class="node">
<title>x86_pmu_enable:[kernel.kallsyms]</title>
<polygon fill="#0c5486" stroke="#0c5486" points="217.5,-295 126.5,-295 126.5,-243 217.5,-243 217.5,-295"/>
<text text-anchor="middle" x="172" y="-283" font-family="Arial" font-size="10.00" fill="#ffffff">[kernel.kallsyms]</text>
<text text-anchor="middle" x="172" y="-272" font-family="Arial" font-size="10.00" fill="#ffffff">x86_pmu_enable</text>
<text text-anchor="middle" x="172" y="-261" font-family="Arial" font-size="10.00" fill="#ffffff">14.71%</text>
<text text-anchor="middle" x="172" y="-250" font-family="Arial" font-size="10.00" fill="#ffffff">(0.00%)</text>
</g>
<!-- ctx_resched:[kernel.kallsyms]&#45;&gt;x86_pmu_enable:[kernel.kallsyms] -->
<g id="edge13" class="edge">
<title>ctx_resched:[kernel.kallsyms]&#45;&gt;x86_pmu_enable:[kernel.kallsyms]</title>
<path fill="none" stroke="#0c5486" stroke-width=".59" d="M176.0685,-323.9252C175.4797,-315.9764 174.8278,-307.1748 174.2214,-298.9887"/>
<polygon fill="#0c5486" stroke="#0c5486" stroke-width=".59" points="175.535,-298.7173 173.9278,-295.0259 172.8823,-298.9138 175.535,-298.7173"/>
<text text-anchor="middle" x="193" y="-307" font-family="Arial" font-size="10.00" fill="#0c5486">14.71%</text>
</g>
<!-- intel_pmu_enable_all:[kernel.kallsyms] -->
<g id="node27" class="node">
<title>intel_pmu_enable_all:[kernel.kallsyms]</title>
<polygon fill="#0c5486" stroke="#0c5486" points="216.5,-214 109.5,-214 109.5,-162 216.5,-162 216.5,-214"/>
<text text-anchor="middle" x="163" y="-202" font-family="Arial" font-size="10.00" fill="#ffffff">[kernel.kallsyms]</text>
<text text-anchor="middle" x="163" y="-191" font-family="Arial" font-size="10.00" fill="#ffffff">intel_pmu_enable_all</text>
<text text-anchor="middle" x="163" y="-180" font-family="Arial" font-size="10.00" fill="#ffffff">14.71%</text>
<text text-anchor="middle" x="163" y="-169" font-family="Arial" font-size="10.00" fill="#ffffff">(0.00%)</text>
</g>
<!-- x86_pmu_enable:[kernel.kallsyms]&#45;&gt;intel_pmu_enable_all:[kernel.kallsyms] -->
<g id="edge34" class="edge">
<title>x86_pmu_enable:[kernel.kallsyms]&#45;&gt;intel_pmu_enable_all:[kernel.kallsyms]</title>
<path fill="none" stroke="#0c5486" stroke-width=".59" d="M169.1028,-242.9252C168.2196,-234.9764 167.2416,-226.1748 166.3321,-217.9887"/>
<polygon fill="#0c5486" stroke="#0c5486" stroke-width=".59" points="167.6334,-217.6558 165.8918,-214.0259 164.9896,-217.9496 167.6334,-217.6558"/>
<text text-anchor="middle" x="186" y="-226" font-family="Arial" font-size="10.00" fill="#0c5486">14.71%</text>
</g>
<!-- do_execveat_common.isra.34:[kernel.kallsyms] -->
<g id="node22" class="node">
<title>do_execveat_common.isra.34:[kernel.kallsyms]</title>
<polygon fill="#0c658a" stroke="#0c658a" points="183.5,-781 36.5,-781 36.5,-729 183.5,-729 183.5,-781"/>
<text text-anchor="middle" x="110" y="-769" font-family="Arial" font-size="10.00" fill="#ffffff">[kernel.kallsyms]</text>
<text text-anchor="middle" x="110" y="-758" font-family="Arial" font-size="10.00" fill="#ffffff">do_execveat_common.isra.34</text>
<text text-anchor="middle" x="110" y="-747" font-family="Arial" font-size="10.00" fill="#ffffff">17.65%</text>
<text text-anchor="middle" x="110" y="-736" font-family="Arial" font-size="10.00" fill="#ffffff">(0.00%)</text>
</g>
<!-- search_binary_handler:[kernel.kallsyms] -->
<g id="node23" class="node">
<title>search_binary_handler:[kernel.kallsyms]</title>
<polygon fill="#0c658a" stroke="#0c658a" points="167,-700 53,-700 53,-648 167,-648 167,-700"/>
<text text-anchor="middle" x="110" y="-688" font-family="Arial" font-size="10.00" fill="#ffffff">[kernel.kallsyms]</text>
<text text-anchor="middle" x="110" y="-677" font-family="Arial" font-size="10.00" fill="#ffffff">search_binary_handler</text>
<text text-anchor="middle" x="110" y="-666" font-family="Arial" font-size="10.00" fill="#ffffff">17.65%</text>
<text text-anchor="middle" x="110" y="-655" font-family="Arial" font-size="10.00" fill="#ffffff">(0.00%)</text>
</g>
<!-- do_execveat_common.isra.34:[kernel.kallsyms]&#45;&gt;search_binary_handler:[kernel.kallsyms] -->
<g id="edge15" class="edge">
<title>do_execveat_common.isra.34:[kernel.kallsyms]&#45;&gt;search_binary_handler:[kernel.kallsyms]</title>
<path fill="none" stroke="#0c658a" stroke-width=".71" d="M110,-728.9252C110,-721.1209 110,-712.4945 110,-704.4358"/>
<polygon fill="#0c658a" stroke="#0c658a" stroke-width=".71" points="111.4701,-704.2259 110,-700.0259 108.5301,-704.2259 111.4701,-704.2259"/>
<text text-anchor="middle" x="127" y="-712" font-family="Arial" font-size="10.00" fill="#0c658a">17.65%</text>
</g>
<!-- load_elf_binary:[kernel.kallsyms] -->
<g id="node28" class="node">
<title>load_elf_binary:[kernel.kallsyms]</title>
<polygon fill="#0c658a" stroke="#0c658a" points="155.5,-619 64.5,-619 64.5,-567 155.5,-567 155.5,-619"/>
<text text-anchor="middle" x="110" y="-607" font-family="Arial" font-size="10.00" fill="#ffffff">[kernel.kallsyms]</text>
<text text-anchor="middle" x="110" y="-596" font-family="Arial" font-size="10.00" fill="#ffffff">load_elf_binary</text>
<text text-anchor="middle" x="110" y="-585" font-family="Arial" font-size="10.00" fill="#ffffff">17.65%</text>
<text text-anchor="middle" x="110" y="-574" font-family="Arial" font-size="10.00" fill="#ffffff">(0.00%)</text>
</g>
<!-- search_binary_handler:[kernel.kallsyms]&#45;&gt;load_elf_binary:[kernel.kallsyms] -->
<g id="edge29" class="edge">
<title>search_binary_handler:[kernel.kallsyms]&#45;&gt;load_elf_binary:[kernel.kallsyms]</title>
<path fill="none" stroke="#0c658a" stroke-width=".71" d="M110,-647.9252C110,-640.1209 110,-631.4945 110,-623.4358"/>
<polygon fill="#0c658a" stroke="#0c658a" stroke-width=".71" points="111.4701,-623.2259 110,-619.0259 108.5301,-623.2259 111.4701,-623.2259"/>
<text text-anchor="middle" x="127" y="-631" font-family="Arial" font-size="10.00" fill="#0c658a">17.65%</text>
</g>
<!-- sys_execve:[kernel.kallsyms] -->
<g id="node25" class="node">
<title>sys_execve:[kernel.kallsyms]</title>
<polygon fill="#0c658a" stroke="#0c658a" points="155.5,-862 64.5,-862 64.5,-810 155.5,-810 155.5,-862"/>
<text text-anchor="middle" x="110" y="-850" font-family="Arial" font-size="10.00" fill="#ffffff">[kernel.kallsyms]</text>
<text text-anchor="middle" x="110" y="-839" font-family="Arial" font-size="10.00" fill="#ffffff">sys_execve</text>
<text text-anchor="middle" x="110" y="-828" font-family="Arial" font-size="10.00" fill="#ffffff">17.65%</text>
<text text-anchor="middle" x="110" y="-817" font-family="Arial" font-size="10.00" fill="#ffffff">(0.00%)</text>
</g>
<!-- do_syscall_64:[kernel.kallsyms]&#45;&gt;sys_execve:[kernel.kallsyms] -->
<g id="edge16" class="edge">
<title>do_syscall_64:[kernel.kallsyms]&#45;&gt;sys_execve:[kernel.kallsyms]</title>
<path fill="none" stroke="#0c658a" stroke-width=".71" d="M110,-890.9252C110,-883.1209 110,-874.4945 110,-866.4358"/>
<polygon fill="#0c658a" stroke="#0c658a" stroke-width=".71" points="111.4701,-866.2259 110,-862.0259 108.5301,-866.2259 111.4701,-866.2259"/>
<text text-anchor="middle" x="127" y="-874" font-family="Arial" font-size="10.00" fill="#0c658a">17.65%</text>
</g>
<!-- sys_execve:[kernel.kallsyms]&#45;&gt;do_execveat_common.isra.34:[kernel.kallsyms] -->
<g id="edge33" class="edge">
<title>sys_execve:[kernel.kallsyms]&#45;&gt;do_execveat_common.isra.34:[kernel.kallsyms]</title>
<path fill="none" stroke="#0c658a" stroke-width=".71" d="M110,-809.9252C110,-802.1209 110,-793.4945 110,-785.4358"/>
<polygon fill="#0c658a" stroke="#0c658a" stroke-width=".71" points="111.4701,-785.2259 110,-781.0259 108.5301,-785.2259 111.4701,-785.2259"/>
<text text-anchor="middle" x="127" y="-793" font-family="Arial" font-size="10.00" fill="#0c658a">17.65%</text>
</g>
<!-- flush_signal_handlers:[kernel.kallsyms] -->
<g id="node26" class="node">
<title>flush_signal_handlers:[kernel.kallsyms]</title>
<polygon fill="#0d1977" stroke="#0d1977" points="124,-457 14,-457 14,-405 124,-405 124,-457"/>
<text text-anchor="middle" x="69" y="-445" font-family="Arial" font-size="10.00" fill="#ffffff">[kernel.kallsyms]</text>
<text text-anchor="middle" x="69" y="-434" font-family="Arial" font-size="10.00" fill="#ffffff">flush_signal_handlers</text>
<text text-anchor="middle" x="69" y="-423" font-family="Arial" font-size="10.00" fill="#ffffff">2.94%</text>
<text text-anchor="middle" x="69" y="-412" font-family="Arial" font-size="10.00" fill="#ffffff">(2.94%)</text>
</g>
<!-- intel_pmu_enable_all:[kernel.kallsyms]&#45;&gt;__intel_pmu_enable_all.constprop.19:[kernel.kallsyms] -->
<g id="edge18" class="edge">
<title>intel_pmu_enable_all:[kernel.kallsyms]&#45;&gt;__intel_pmu_enable_all.constprop.19:[kernel.kallsyms]</title>
<path fill="none" stroke="#0c5486" stroke-width=".59" d="M154.6303,-161.9252C152.0788,-153.9764 149.2536,-145.1748 146.626,-136.9887"/>
<polygon fill="#0c5486" stroke="#0c5486" stroke-width=".59" points="147.7818,-136.2376 145.354,-133.0259 145.2491,-137.0506 147.7818,-136.2376"/>
<text text-anchor="middle" x="169" y="-145" font-family="Arial" font-size="10.00" fill="#0c5486">14.71%</text>
</g>
<!-- setup_new_exec:[kernel.kallsyms] -->
<g id="node29" class="node">
<title>setup_new_exec:[kernel.kallsyms]</title>
<polygon fill="#0c658a" stroke="#0c658a" points="155.5,-538 64.5,-538 64.5,-486 155.5,-486 155.5,-538"/>
<text text-anchor="middle" x="110" y="-526" font-family="Arial" font-size="10.00" fill="#ffffff">[kernel.kallsyms]</text>
<text text-anchor="middle" x="110" y="-515" font-family="Arial" font-size="10.00" fill="#ffffff">setup_new_exec</text>
<text text-anchor="middle" x="110" y="-504" font-family="Arial" font-size="10.00" fill="#ffffff">17.65%</text>
<text text-anchor="middle" x="110" y="-493" font-family="Arial" font-size="10.00" fill="#ffffff">(0.00%)</text>
</g>
<!-- load_elf_binary:[kernel.kallsyms]&#45;&gt;setup_new_exec:[kernel.kallsyms] -->
<g id="edge19" class="edge">
<title>load_elf_binary:[kernel.kallsyms]&#45;&gt;setup_new_exec:[kernel.kallsyms]</title>
<path fill="none" stroke="#0c658a" stroke-width=".71" d="M110,-566.9252C110,-559.1209 110,-550.4945 110,-542.4358"/>
<polygon fill="#0c658a" stroke="#0c658a" stroke-width=".71" points="111.4701,-542.2259 110,-538.0259 108.5301,-542.2259 111.4701,-542.2259"/>
<text text-anchor="middle" x="127" y="-550" font-family="Arial" font-size="10.00" fill="#0c658a">17.65%</text>
</g>
<!-- setup_new_exec:[kernel.kallsyms]&#45;&gt;flush_signal_handlers:[kernel.kallsyms] -->
<g id="edge30" class="edge">
<title>setup_new_exec:[kernel.kallsyms]&#45;&gt;flush_signal_handlers:[kernel.kallsyms]</title>
<path fill="none" stroke="#0d1977" stroke-width=".5" d="M96.4045,-485.6431C94.9135,-482.7292 93.4216,-479.8033 92,-477 89.3246,-471.7243 86.4936,-466.0985 83.7666,-460.6571"/>
<polygon fill="#0d1977" stroke="#0d1977" stroke-width=".5" points="84.747,-459.8788 82.0845,-457.2977 82.5562,-460.9758 84.747,-459.8788"/>
<text text-anchor="middle" x="106" y="-469" font-family="Arial" font-size="10.00" fill="#0d1977">2.94%</text>
</g>
<!-- perf_event_exec:[kernel.kallsyms] -->
<g id="node33" class="node">
<title>perf_event_exec:[kernel.kallsyms]</title>
<polygon fill="#0c5486" stroke="#0c5486" points="224.5,-457 133.5,-457 133.5,-405 224.5,-405 224.5,-457"/>
<text text-anchor="middle" x="179" y="-445" font-family="Arial" font-size="10.00" fill="#ffffff">[kernel.kallsyms]</text>
<text text-anchor="middle" x="179" y="-434" font-family="Arial" font-size="10.00" fill="#ffffff">perf_event_exec</text>
<text text-anchor="middle" x="179" y="-423" font-family="Arial" font-size="10.00" fill="#ffffff">14.71%</text>
<text text-anchor="middle" x="179" y="-412" font-family="Arial" font-size="10.00" fill="#ffffff">(0.00%)</text>
</g>
<!-- setup_new_exec:[kernel.kallsyms]&#45;&gt;perf_event_exec:[kernel.kallsyms] -->
<g id="edge31" class="edge">
<title>setup_new_exec:[kernel.kallsyms]&#45;&gt;perf_event_exec:[kernel.kallsyms]</title>
<path fill="none" stroke="#0c5486" stroke-width=".59" d="M132.2118,-485.9252C139.2293,-477.6873 147.027,-468.5335 154.2127,-460.0982"/>
<polygon fill="#0c5486" stroke="#0c5486" stroke-width=".59" points="155.378,-460.7811 156.8298,-457.0259 153.3531,-459.0562 155.378,-460.7811"/>
<text text-anchor="middle" x="166" y="-469" font-family="Arial" font-size="10.00" fill="#0c5486">14.71%</text>
</g>
<!-- quickSort:/home/francesca/Documents/HPC/A2/QS/qs_perf&#45;&gt;quickSort:/home/francesca/Documents/HPC/A2/QS/qs_perf -->
<g id="edge28" class="edge">
<title>quickSort:/home/francesca/Documents/HPC/A2/QS/qs_perf&#45;&gt;quickSort:/home/francesca/Documents/HPC/A2/QS/qs_perf</title>
<path fill="none" stroke="#e0b905" stroke-width="3.18" d="M333.3164,-843.0313C338.4375,-842.0938 342,-839.75 342,-836 342,-834.9453 341.7182,-834.0019 341.1992,-833.1696"/>
<polygon fill="#e0b905" stroke="#e0b905" stroke-width="3.18" points="342.6357,-830.4055 333.3164,-828.9688 339.7057,-835.9035 342.6357,-830.4055"/>
</g>
<!-- partition:/home/francesca/Documents/HPC/A2/QS/qs_perf -->
<g id="node31" class="node">
<title>partition:/home/francesca/Documents/HPC/A2/QS/qs_perf</title>
<polygon fill="#dccf05" stroke="#dccf05" points="332,-781 276,-781 276,-729 332,-729 332,-781"/>
<text text-anchor="middle" x="304" y="-769" font-family="Arial" font-size="10.00" fill="#ffffff">qs_perf</text>
<text text-anchor="middle" x="304" y="-758" font-family="Arial" font-size="10.00" fill="#ffffff">partition</text>
<text text-anchor="middle" x="304" y="-747" font-family="Arial" font-size="10.00" fill="#ffffff">76.47%</text>
<text text-anchor="middle" x="304" y="-736" font-family="Arial" font-size="10.00" fill="#ffffff">(29.41%)</text>
</g>
<!-- quickSort:/home/francesca/Documents/HPC/A2/QS/qs_perf&#45;&gt;partition:/home/francesca/Documents/HPC/A2/QS/qs_perf -->
<g id="edge27" class="edge">
<title>quickSort:/home/francesca/Documents/HPC/A2/QS/qs_perf&#45;&gt;partition:/home/francesca/Documents/HPC/A2/QS/qs_perf</title>
<path fill="none" stroke="#dccf05" stroke-width="3.06" d="M304,-809.9252C304,-803.5662 304,-796.6613 304,-789.9624"/>
<polygon fill="#dccf05" stroke="#dccf05" stroke-width="3.06" points="307.0451,-789.7259 304,-781.0259 300.9551,-789.7259 307.0451,-789.7259"/>
<text text-anchor="middle" x="321" y="-793" font-family="Arial" font-size="10.00" fill="#dccf05">76.47%</text>
</g>
<!-- partition:/home/francesca/Documents/HPC/A2/QS/qs_perf&#45;&gt;_mcount:/lib/x86_64&#45;linux&#45;gnu/libc&#45;2.27.so -->
<g id="edge24" class="edge">
<title>partition:/home/francesca/Documents/HPC/A2/QS/qs_perf&#45;&gt;_mcount:/lib/x86_64&#45;linux&#45;gnu/libc&#45;2.27.so</title>
<path fill="none" stroke="#0d1977" stroke-width=".5" d="M281.8994,-728.9523C275.8598,-720.2946 270.1229,-710.2369 267,-700 260.2565,-677.8946 259.4721,-669.8507 267,-648 270.1997,-638.7124 275.6832,-629.793 281.6839,-621.9394"/>
<polygon fill="#0d1977" stroke="#0d1977" stroke-width=".5" points="282.7183,-622.6054 283.9147,-619.0955 280.7906,-621.0933 282.7183,-622.6054"/>
<text text-anchor="middle" x="281" y="-671.5" font-family="Arial" font-size="10.00" fill="#0d1977">2.94%</text>
</g>
<!-- swap:/home/francesca/Documents/HPC/A2/QS/qs_perf -->
<g id="node32" class="node">
<title>swap:/home/francesca/Documents/HPC/A2/QS/qs_perf</title>
<polygon fill="#0aad31" stroke="#0aad31" points="354.5,-700 299.5,-700 299.5,-648 354.5,-648 354.5,-700"/>
<text text-anchor="middle" x="327" y="-688" font-family="Arial" font-size="10.00" fill="#ffffff">qs_perf</text>
<text text-anchor="middle" x="327" y="-677" font-family="Arial" font-size="10.00" fill="#ffffff">swap</text>
<text text-anchor="middle" x="327" y="-666" font-family="Arial" font-size="10.00" fill="#ffffff">44.12%</text>
<text text-anchor="middle" x="327" y="-655" font-family="Arial" font-size="10.00" fill="#ffffff">(11.76%)</text>
</g>
<!-- partition:/home/francesca/Documents/HPC/A2/QS/qs_perf&#45;&gt;swap:/home/francesca/Documents/HPC/A2/QS/qs_perf -->
<g id="edge25" class="edge">
<title>partition:/home/francesca/Documents/HPC/A2/QS/qs_perf&#45;&gt;swap:/home/francesca/Documents/HPC/A2/QS/qs_perf</title>
<path fill="none" stroke="#0aad31" stroke-width="1.76" d="M311.4039,-728.9252C313.4148,-721.8435 315.6178,-714.085 317.7183,-706.6878"/>
<polygon fill="#0aad31" stroke="#0aad31" stroke-width="1.76" points="320.0292,-707.0059 319.6099,-700.0259 315.5849,-705.7439 320.0292,-707.0059"/>
<text text-anchor="middle" x="334" y="-712" font-family="Arial" font-size="10.00" fill="#0aad31">44.12%</text>
</g>
<!-- swap:/home/francesca/Documents/HPC/A2/QS/qs_perf&#45;&gt;_mcount:/lib/x86_64&#45;linux&#45;gnu/libc&#45;2.27.so -->
<g id="edge32" class="edge">
<title>swap:/home/francesca/Documents/HPC/A2/QS/qs_perf&#45;&gt;_mcount:/lib/x86_64&#45;linux&#45;gnu/libc&#45;2.27.so</title>
<path fill="none" stroke="#0b9d72" stroke-width="1.29" d="M321.5275,-647.9252C319.9806,-640.5545 318.2797,-632.4505 316.6707,-624.7839"/>
<polygon fill="#0b9d72" stroke="#0b9d72" stroke-width="1.29" points="318.5856,-624.1946 315.4622,-619.0259 314.6806,-625.0142 318.5856,-624.1946"/>
<text text-anchor="middle" x="337" y="-631" font-family="Arial" font-size="10.00" fill="#0b9d72">32.35%</text>
</g>
<!-- perf_event_exec:[kernel.kallsyms]&#45;&gt;ctx_resched:[kernel.kallsyms] -->
<g id="edge26" class="edge">
<title>perf_event_exec:[kernel.kallsyms]&#45;&gt;ctx_resched:[kernel.kallsyms]</title>
<path fill="none" stroke="#0c5486" stroke-width=".59" d="M178.6781,-404.9252C178.58,-396.9764 178.4713,-388.1748 178.3702,-379.9887"/>
<polygon fill="#0c5486" stroke="#0c5486" stroke-width=".59" points="179.6982,-379.8092 178.3213,-376.0259 177.0384,-379.8421 179.6982,-379.8092"/>
<text text-anchor="middle" x="196" y="-388" font-family="Arial" font-size="10.00" fill="#0c5486">14.71%</text>
</g>
</g>
</svg>
