<?xml version="1.0" encoding="UTF-8" standalone="no"?>
<!DOCTYPE svg PUBLIC "-//W3C//DTD SVG 1.1//EN"
 "http://www.w3.org/Graphics/SVG/1.1/DTD/svg11.dtd">
<!-- Generated by graphviz version 2.40.1 (20161225.0304)
 -->
<!-- Title: %3 Pages: 1 -->
<svg width="125pt" height="244pt"
 viewBox="0.00 0.00 125.00 244.00" xmlns="http://www.w3.org/2000/svg" xmlns:xlink="http://www.w3.org/1999/xlink">
<g id="graph0" class="graph" transform="scale(1 1) rotate(0) translate(4 240)">
<title>%3</title>
<polygon fill="#ffffff" stroke="transparent" points="-4,4 -4,-240 121,-240 121,4 -4,4"/>
<!-- 1 -->
<g id="node1" class="node">
<title>1</title>
<polygon fill="#ff0000" stroke="#ff0000" points="61,-52 0,-52 0,0 61,0 61,-52"/>
<text text-anchor="middle" x="30.5" y="-40" font-family="Arial" font-size="10.00" fill="#ffffff">swap</text>
<text text-anchor="middle" x="30.5" y="-29" font-family="Arial" font-size="10.00" fill="#ffffff">100.00%</text>
<text text-anchor="middle" x="30.5" y="-18" font-family="Arial" font-size="10.00" fill="#ffffff">(100.00%)</text>
<text text-anchor="middle" x="30.5" y="-7" font-family="Arial" font-size="10.00" fill="#ffffff">1046089×</text>
</g>
<!-- 2 -->
<g id="node2" class="node">
<title>2</title>
<polygon fill="#ff0000" stroke="#ff0000" points="61,-144 0,-144 0,-92 61,-92 61,-144"/>
<text text-anchor="middle" x="30.5" y="-132" font-family="Arial" font-size="10.00" fill="#ffffff">partition</text>
<text text-anchor="middle" x="30.5" y="-121" font-family="Arial" font-size="10.00" fill="#ffffff">100.00%</text>
<text text-anchor="middle" x="30.5" y="-110" font-family="Arial" font-size="10.00" fill="#ffffff">(100.00%)</text>
<text text-anchor="middle" x="30.5" y="-99" font-family="Arial" font-size="10.00" fill="#ffffff">66606×</text>
</g>
<!-- 2&#45;&gt;1 -->
<g id="edge1" class="edge">
<title>2&#45;&gt;1</title>
<path fill="none" stroke="#ff0000" stroke-width="4" d="M30.5,-91.8826C30.5,-82.6565 30.5,-72.1091 30.5,-62.1983"/>
<polygon fill="#ff0000" stroke="#ff0000" stroke-width="4" points="34.0001,-62.1827 30.5,-52.1827 27.0001,-62.1828 34.0001,-62.1827"/>
<text text-anchor="middle" x="52" y="-75" font-family="Arial" font-size="10.00" fill="#ff0000">100.00%</text>
<text text-anchor="middle" x="52" y="-64" font-family="Arial" font-size="10.00" fill="#ff0000">1046089×</text>
</g>
<!-- 3 -->
<g id="node3" class="node">
<title>3</title>
<polygon fill="#ff0000" stroke="#ff0000" points="61,-236 0,-236 0,-184 61,-184 61,-236"/>
<text text-anchor="middle" x="30.5" y="-224" font-family="Arial" font-size="10.00" fill="#ffffff">quickSort</text>
<text text-anchor="middle" x="30.5" y="-213" font-family="Arial" font-size="10.00" fill="#ffffff">100.00%</text>
<text text-anchor="middle" x="30.5" y="-202" font-family="Arial" font-size="10.00" fill="#ffffff">(100.00%)</text>
<text text-anchor="middle" x="30.5" y="-191" font-family="Arial" font-size="10.00" fill="#ffffff">133213×</text>
</g>
<!-- 3&#45;&gt;2 -->
<g id="edge2" class="edge">
<title>3&#45;&gt;2</title>
<path fill="none" stroke="#ff0000" stroke-width="4" d="M30.5,-183.8826C30.5,-174.6565 30.5,-164.1091 30.5,-154.1983"/>
<polygon fill="#ff0000" stroke="#ff0000" stroke-width="4" points="34.0001,-154.1827 30.5,-144.1827 27.0001,-154.1828 34.0001,-154.1827"/>
<text text-anchor="middle" x="50" y="-167" font-family="Arial" font-size="10.00" fill="#ff0000">100.00%</text>
<text text-anchor="middle" x="50" y="-156" font-family="Arial" font-size="10.00" fill="#ff0000">66606×</text>
</g>
<!-- 3&#45;&gt;3 -->
<g id="edge3" class="edge">
<title>3&#45;&gt;3</title>
<path fill="none" stroke="#ff0000" stroke-width="4" d="M61.3042,-218.0164C66.4496,-216.8948 70,-214.2227 70,-210 70,-209.2083 69.8752,-208.471 69.6384,-207.7883"/>
<polygon fill="#ff0000" stroke="#ff0000" stroke-width="4" points="71.5104,-204.8269 61.3042,-201.9836 67.5097,-210.5709 71.5104,-204.8269"/>
<text text-anchor="middle" x="89" y="-207.5" font-family="Arial" font-size="10.00" fill="#ff0000">133212×</text>
</g>
</g>
</svg>
