<?xml version="1.0" encoding="UTF-8" standalone="no"?>
<!DOCTYPE svg PUBLIC "-//W3C//DTD SVG 1.1//EN"
 "http://www.w3.org/Graphics/SVG/1.1/DTD/svg11.dtd">
<!-- Generated by graphviz version 2.40.1 (20161225.0304)
 -->
<!-- Title: %3 Pages: 1 -->
<svg width="231pt" height="1113pt"
 viewBox="0.00 0.00 230.50 1113.00" xmlns="http://www.w3.org/2000/svg" xmlns:xlink="http://www.w3.org/1999/xlink">
<g id="graph0" class="graph" transform="scale(1 1) rotate(0) translate(4 1109)">
<title>%3</title>
<polygon fill="#ffffff" stroke="transparent" points="-4,4 -4,-1109 226.5,-1109 226.5,4 -4,4"/>
<!-- 43fe000043fe:[unknown] -->
<g id="node1" class="node">
<title>43fe000043fe:[unknown]</title>
<polygon fill="#ff0000" stroke="#ff0000" points="147.5,-1105 72.5,-1105 72.5,-1053 147.5,-1053 147.5,-1105"/>
<text text-anchor="middle" x="110" y="-1093" font-family="Arial" font-size="10.00" fill="#ffffff">[unknown]</text>
<text text-anchor="middle" x="110" y="-1082" font-family="Arial" font-size="10.00" fill="#ffffff">43fe000043fe</text>
<text text-anchor="middle" x="110" y="-1071" font-family="Arial" font-size="10.00" fill="#ffffff">100.00%</text>
<text text-anchor="middle" x="110" y="-1060" font-family="Arial" font-size="10.00" fill="#ffffff">(0.00%)</text>
</g>
<!-- entry_SYSCALL_64_after_hwframe:[kernel.kallsyms] -->
<g id="node2" class="node">
<title>entry_SYSCALL_64_after_hwframe:[kernel.kallsyms]</title>
<polygon fill="#ff0000" stroke="#ff0000" points="195,-1024 25,-1024 25,-972 195,-972 195,-1024"/>
<text text-anchor="middle" x="110" y="-1012" font-family="Arial" font-size="10.00" fill="#ffffff">[kernel.kallsyms]</text>
<text text-anchor="middle" x="110" y="-1001" font-family="Arial" font-size="10.00" fill="#ffffff">entry_SYSCALL_64_after_hwframe</text>
<text text-anchor="middle" x="110" y="-990" font-family="Arial" font-size="10.00" fill="#ffffff">100.00%</text>
<text text-anchor="middle" x="110" y="-979" font-family="Arial" font-size="10.00" fill="#ffffff">(0.00%)</text>
</g>
<!-- 43fe000043fe:[unknown]&#45;&gt;entry_SYSCALL_64_after_hwframe:[kernel.kallsyms] -->
<g id="edge1" class="edge">
<title>43fe000043fe:[unknown]&#45;&gt;entry_SYSCALL_64_after_hwframe:[kernel.kallsyms]</title>
<path fill="none" stroke="#ff0000" stroke-width="4" d="M110,-1052.9252C110,-1046.9997 110,-1040.6003 110,-1034.3353"/>
<polygon fill="#ff0000" stroke="#ff0000" stroke-width="4" points="113.5001,-1034.0259 110,-1024.0259 106.5001,-1034.0259 113.5001,-1034.0259"/>
<text text-anchor="middle" x="129.5" y="-1036" font-family="Arial" font-size="10.00" fill="#ff0000">100.00%</text>
</g>
<!-- do_syscall_64:[kernel.kallsyms] -->
<g id="node11" class="node">
<title>do_syscall_64:[kernel.kallsyms]</title>
<polygon fill="#ff0000" stroke="#ff0000" points="155.5,-943 64.5,-943 64.5,-891 155.5,-891 155.5,-943"/>
<text text-anchor="middle" x="110" y="-931" font-family="Arial" font-size="10.00" fill="#ffffff">[kernel.kallsyms]</text>
<text text-anchor="middle" x="110" y="-920" font-family="Arial" font-size="10.00" fill="#ffffff">do_syscall_64</text>
<text text-anchor="middle" x="110" y="-909" font-family="Arial" font-size="10.00" fill="#ffffff">100.00%</text>
<text text-anchor="middle" x="110" y="-898" font-family="Arial" font-size="10.00" fill="#ffffff">(0.00%)</text>
</g>
<!-- entry_SYSCALL_64_after_hwframe:[kernel.kallsyms]&#45;&gt;do_syscall_64:[kernel.kallsyms] -->
<g id="edge9" class="edge">
<title>entry_SYSCALL_64_after_hwframe:[kernel.kallsyms]&#45;&gt;do_syscall_64:[kernel.kallsyms]</title>
<path fill="none" stroke="#ff0000" stroke-width="4" d="M110,-971.9252C110,-965.9997 110,-959.6003 110,-953.3353"/>
<polygon fill="#ff0000" stroke="#ff0000" stroke-width="4" points="113.5001,-953.0259 110,-943.0259 106.5001,-953.0259 113.5001,-953.0259"/>
<text text-anchor="middle" x="129.5" y="-955" font-family="Arial" font-size="10.00" fill="#ff0000">100.00%</text>
</g>
<!-- __intel_pmu_enable_all.constprop.19:[kernel.kallsyms] -->
<g id="node3" class="node">
<title>__intel_pmu_enable_all.constprop.19:[kernel.kallsyms]</title>
<polygon fill="#e69b04" stroke="#e69b04" points="206.5,-133 29.5,-133 29.5,-81 206.5,-81 206.5,-133"/>
<text text-anchor="middle" x="118" y="-121" font-family="Arial" font-size="10.00" fill="#ffffff">[kernel.kallsyms]</text>
<text text-anchor="middle" x="118" y="-110" font-family="Arial" font-size="10.00" fill="#ffffff">__intel_pmu_enable_all.constprop.19</text>
<text text-anchor="middle" x="118" y="-99" font-family="Arial" font-size="10.00" fill="#ffffff">83.33%</text>
<text text-anchor="middle" x="118" y="-88" font-family="Arial" font-size="10.00" fill="#ffffff">(0.00%)</text>
</g>
<!-- end_repeat_nmi:[kernel.kallsyms] -->
<g id="node4" class="node">
<title>end_repeat_nmi:[kernel.kallsyms]</title>
<polygon fill="#0c5f88" stroke="#0c5f88" points="113.5,-52 22.5,-52 22.5,0 113.5,0 113.5,-52"/>
<text text-anchor="middle" x="68" y="-40" font-family="Arial" font-size="10.00" fill="#ffffff">[kernel.kallsyms]</text>
<text text-anchor="middle" x="68" y="-29" font-family="Arial" font-size="10.00" fill="#ffffff">end_repeat_nmi</text>
<text text-anchor="middle" x="68" y="-18" font-family="Arial" font-size="10.00" fill="#ffffff">16.67%</text>
<text text-anchor="middle" x="68" y="-7" font-family="Arial" font-size="10.00" fill="#ffffff">(16.67%)</text>
</g>
<!-- __intel_pmu_enable_all.constprop.19:[kernel.kallsyms]&#45;&gt;end_repeat_nmi:[kernel.kallsyms] -->
<g id="edge2" class="edge">
<title>__intel_pmu_enable_all.constprop.19:[kernel.kallsyms]&#45;&gt;end_repeat_nmi:[kernel.kallsyms]</title>
<path fill="none" stroke="#0c5f88" stroke-width=".67" d="M101.9045,-80.9252C96.9086,-72.8319 91.3669,-63.8544 86.2363,-55.5428"/>
<polygon fill="#0c5f88" stroke="#0c5f88" stroke-width=".67" points="87.4401,-54.761 84.0654,-52.0259 84.9979,-56.2685 87.4401,-54.761"/>
<text text-anchor="middle" x="113" y="-64" font-family="Arial" font-size="10.00" fill="#0c5f88">16.67%</text>
</g>
<!-- native_write_msr:[kernel.kallsyms] -->
<g id="node5" class="node">
<title>native_write_msr:[kernel.kallsyms]</title>
<polygon fill="#8bcd07" stroke="#8bcd07" points="222.5,-52 131.5,-52 131.5,0 222.5,0 222.5,-52"/>
<text text-anchor="middle" x="177" y="-40" font-family="Arial" font-size="10.00" fill="#ffffff">[kernel.kallsyms]</text>
<text text-anchor="middle" x="177" y="-29" font-family="Arial" font-size="10.00" fill="#ffffff">native_write_msr</text>
<text text-anchor="middle" x="177" y="-18" font-family="Arial" font-size="10.00" fill="#ffffff">66.67%</text>
<text text-anchor="middle" x="177" y="-7" font-family="Arial" font-size="10.00" fill="#ffffff">(66.67%)</text>
</g>
<!-- __intel_pmu_enable_all.constprop.19:[kernel.kallsyms]&#45;&gt;native_write_msr:[kernel.kallsyms] -->
<g id="edge3" class="edge">
<title>__intel_pmu_enable_all.constprop.19:[kernel.kallsyms]&#45;&gt;native_write_msr:[kernel.kallsyms]</title>
<path fill="none" stroke="#8bcd07" stroke-width="2.67" d="M136.9927,-80.9252C142.151,-73.8435 147.8023,-66.085 153.1904,-58.6878"/>
<polygon fill="#8bcd07" stroke="#8bcd07" stroke-width="2.67" points="155.5348,-60.3438 158.0429,-52.0259 150.8951,-56.9643 155.5348,-60.3438"/>
<text text-anchor="middle" x="169" y="-64" font-family="Arial" font-size="10.00" fill="#8bcd07">66.67%</text>
</g>
<!-- end_repeat_nmi:[kernel.kallsyms]&#45;&gt;entry_SYSCALL_64_after_hwframe:[kernel.kallsyms] -->
<g id="edge8" class="edge">
<title>end_repeat_nmi:[kernel.kallsyms]&#45;&gt;entry_SYSCALL_64_after_hwframe:[kernel.kallsyms]</title>
<path fill="none" stroke="#0c5f88" stroke-width=".67" d="M30.0237,-52.3488C14.4475,-66.4319 0,-85.3341 0,-107 0,-917 0,-917 0,-917 0,-939.9009 15.6506,-957.05 35.145,-969.5282"/>
<polygon fill="#0c5f88" stroke="#0c5f88" stroke-width=".67" points="34.8485,-971.0313 39.0916,-971.9618 36.355,-968.5884 34.8485,-971.0313"/>
</g>
<!-- native_write_msr:[kernel.kallsyms]&#45;&gt;entry_SYSCALL_64_after_hwframe:[kernel.kallsyms] -->
<g id="edge13" class="edge">
<title>native_write_msr:[kernel.kallsyms]&#45;&gt;entry_SYSCALL_64_after_hwframe:[kernel.kallsyms]</title>
<path fill="none" stroke="#8bcd07" stroke-width="2.67" d="M199.2557,-52.2896C209.748,-67.3202 220,-87.0985 220,-107 220,-917 220,-917 220,-917 220,-938.5651 206.1221,-955.0297 188.225,-967.2966"/>
<polygon fill="#8bcd07" stroke="#8bcd07" stroke-width="2.67" points="186.2795,-965.1333 180.9084,-971.9618 189.3655,-969.9731 186.2795,-965.1333"/>
</g>
<!-- ctx_resched:[kernel.kallsyms] -->
<g id="node6" class="node">
<title>ctx_resched:[kernel.kallsyms]</title>
<polygon fill="#e69b04" stroke="#e69b04" points="205.5,-376 114.5,-376 114.5,-324 205.5,-324 205.5,-376"/>
<text text-anchor="middle" x="160" y="-364" font-family="Arial" font-size="10.00" fill="#ffffff">[kernel.kallsyms]</text>
<text text-anchor="middle" x="160" y="-353" font-family="Arial" font-size="10.00" fill="#ffffff">ctx_resched</text>
<text text-anchor="middle" x="160" y="-342" font-family="Arial" font-size="10.00" fill="#ffffff">83.33%</text>
<text text-anchor="middle" x="160" y="-331" font-family="Arial" font-size="10.00" fill="#ffffff">(0.00%)</text>
</g>
<!-- x86_pmu_enable:[kernel.kallsyms] -->
<g id="node7" class="node">
<title>x86_pmu_enable:[kernel.kallsyms]</title>
<polygon fill="#e69b04" stroke="#e69b04" points="205.5,-295 114.5,-295 114.5,-243 205.5,-243 205.5,-295"/>
<text text-anchor="middle" x="160" y="-283" font-family="Arial" font-size="10.00" fill="#ffffff">[kernel.kallsyms]</text>
<text text-anchor="middle" x="160" y="-272" font-family="Arial" font-size="10.00" fill="#ffffff">x86_pmu_enable</text>
<text text-anchor="middle" x="160" y="-261" font-family="Arial" font-size="10.00" fill="#ffffff">83.33%</text>
<text text-anchor="middle" x="160" y="-250" font-family="Arial" font-size="10.00" fill="#ffffff">(0.00%)</text>
</g>
<!-- ctx_resched:[kernel.kallsyms]&#45;&gt;x86_pmu_enable:[kernel.kallsyms] -->
<g id="edge4" class="edge">
<title>ctx_resched:[kernel.kallsyms]&#45;&gt;x86_pmu_enable:[kernel.kallsyms]</title>
<path fill="none" stroke="#e69b04" stroke-width="3.33" d="M160,-323.9252C160,-317.7107 160,-310.9749 160,-304.4195"/>
<polygon fill="#e69b04" stroke="#e69b04" stroke-width="3.33" points="163.1851,-304.1259 160,-295.0259 156.8151,-304.1259 163.1851,-304.1259"/>
<text text-anchor="middle" x="177" y="-307" font-family="Arial" font-size="10.00" fill="#e69b04">83.33%</text>
</g>
<!-- intel_pmu_enable_all:[kernel.kallsyms] -->
<g id="node15" class="node">
<title>intel_pmu_enable_all:[kernel.kallsyms]</title>
<polygon fill="#e69b04" stroke="#e69b04" points="186.5,-214 79.5,-214 79.5,-162 186.5,-162 186.5,-214"/>
<text text-anchor="middle" x="133" y="-202" font-family="Arial" font-size="10.00" fill="#ffffff">[kernel.kallsyms]</text>
<text text-anchor="middle" x="133" y="-191" font-family="Arial" font-size="10.00" fill="#ffffff">intel_pmu_enable_all</text>
<text text-anchor="middle" x="133" y="-180" font-family="Arial" font-size="10.00" fill="#ffffff">83.33%</text>
<text text-anchor="middle" x="133" y="-169" font-family="Arial" font-size="10.00" fill="#ffffff">(0.00%)</text>
</g>
<!-- x86_pmu_enable:[kernel.kallsyms]&#45;&gt;intel_pmu_enable_all:[kernel.kallsyms] -->
<g id="edge20" class="edge">
<title>x86_pmu_enable:[kernel.kallsyms]&#45;&gt;intel_pmu_enable_all:[kernel.kallsyms]</title>
<path fill="none" stroke="#e69b04" stroke-width="3.33" d="M151.3084,-242.9252C149.1887,-236.5662 146.8871,-229.6613 144.6541,-222.9624"/>
<polygon fill="#e69b04" stroke="#e69b04" stroke-width="3.33" points="147.5746,-221.6517 141.6753,-214.0259 141.5315,-223.6661 147.5746,-221.6517"/>
<text text-anchor="middle" x="166" y="-226" font-family="Arial" font-size="10.00" fill="#e69b04">83.33%</text>
</g>
<!-- do_execveat_common.isra.34:[kernel.kallsyms] -->
<g id="node8" class="node">
<title>do_execveat_common.isra.34:[kernel.kallsyms]</title>
<polygon fill="#ff0000" stroke="#ff0000" points="183.5,-781 36.5,-781 36.5,-729 183.5,-729 183.5,-781"/>
<text text-anchor="middle" x="110" y="-769" font-family="Arial" font-size="10.00" fill="#ffffff">[kernel.kallsyms]</text>
<text text-anchor="middle" x="110" y="-758" font-family="Arial" font-size="10.00" fill="#ffffff">do_execveat_common.isra.34</text>
<text text-anchor="middle" x="110" y="-747" font-family="Arial" font-size="10.00" fill="#ffffff">100.00%</text>
<text text-anchor="middle" x="110" y="-736" font-family="Arial" font-size="10.00" fill="#ffffff">(0.00%)</text>
</g>
<!-- search_binary_handler:[kernel.kallsyms] -->
<g id="node9" class="node">
<title>search_binary_handler:[kernel.kallsyms]</title>
<polygon fill="#ff0000" stroke="#ff0000" points="167,-700 53,-700 53,-648 167,-648 167,-700"/>
<text text-anchor="middle" x="110" y="-688" font-family="Arial" font-size="10.00" fill="#ffffff">[kernel.kallsyms]</text>
<text text-anchor="middle" x="110" y="-677" font-family="Arial" font-size="10.00" fill="#ffffff">search_binary_handler</text>
<text text-anchor="middle" x="110" y="-666" font-family="Arial" font-size="10.00" fill="#ffffff">100.00%</text>
<text text-anchor="middle" x="110" y="-655" font-family="Arial" font-size="10.00" fill="#ffffff">(0.00%)</text>
</g>
<!-- do_execveat_common.isra.34:[kernel.kallsyms]&#45;&gt;search_binary_handler:[kernel.kallsyms] -->
<g id="edge5" class="edge">
<title>do_execveat_common.isra.34:[kernel.kallsyms]&#45;&gt;search_binary_handler:[kernel.kallsyms]</title>
<path fill="none" stroke="#ff0000" stroke-width="4" d="M110,-728.9252C110,-722.9997 110,-716.6003 110,-710.3353"/>
<polygon fill="#ff0000" stroke="#ff0000" stroke-width="4" points="113.5001,-710.0259 110,-700.0259 106.5001,-710.0259 113.5001,-710.0259"/>
<text text-anchor="middle" x="129.5" y="-712" font-family="Arial" font-size="10.00" fill="#ff0000">100.00%</text>
</g>
<!-- load_elf_binary:[kernel.kallsyms] -->
<g id="node16" class="node">
<title>load_elf_binary:[kernel.kallsyms]</title>
<polygon fill="#ff0000" stroke="#ff0000" points="155.5,-619 64.5,-619 64.5,-567 155.5,-567 155.5,-619"/>
<text text-anchor="middle" x="110" y="-607" font-family="Arial" font-size="10.00" fill="#ffffff">[kernel.kallsyms]</text>
<text text-anchor="middle" x="110" y="-596" font-family="Arial" font-size="10.00" fill="#ffffff">load_elf_binary</text>
<text text-anchor="middle" x="110" y="-585" font-family="Arial" font-size="10.00" fill="#ffffff">100.00%</text>
<text text-anchor="middle" x="110" y="-574" font-family="Arial" font-size="10.00" fill="#ffffff">(0.00%)</text>
</g>
<!-- search_binary_handler:[kernel.kallsyms]&#45;&gt;load_elf_binary:[kernel.kallsyms] -->
<g id="edge15" class="edge">
<title>search_binary_handler:[kernel.kallsyms]&#45;&gt;load_elf_binary:[kernel.kallsyms]</title>
<path fill="none" stroke="#ff0000" stroke-width="4" d="M110,-647.9252C110,-641.9997 110,-635.6003 110,-629.3353"/>
<polygon fill="#ff0000" stroke="#ff0000" stroke-width="4" points="113.5001,-629.0259 110,-619.0259 106.5001,-629.0259 113.5001,-629.0259"/>
<text text-anchor="middle" x="129.5" y="-631" font-family="Arial" font-size="10.00" fill="#ff0000">100.00%</text>
</g>
<!-- do_mmap:[kernel.kallsyms] -->
<g id="node10" class="node">
<title>do_mmap:[kernel.kallsyms]</title>
<polygon fill="#0c5f88" stroke="#0c5f88" points="105.5,-295 14.5,-295 14.5,-243 105.5,-243 105.5,-295"/>
<text text-anchor="middle" x="60" y="-283" font-family="Arial" font-size="10.00" fill="#ffffff">[kernel.kallsyms]</text>
<text text-anchor="middle" x="60" y="-272" font-family="Arial" font-size="10.00" fill="#ffffff">do_mmap</text>
<text text-anchor="middle" x="60" y="-261" font-family="Arial" font-size="10.00" fill="#ffffff">16.67%</text>
<text text-anchor="middle" x="60" y="-250" font-family="Arial" font-size="10.00" fill="#ffffff">(16.67%)</text>
</g>
<!-- sys_execve:[kernel.kallsyms] -->
<g id="node12" class="node">
<title>sys_execve:[kernel.kallsyms]</title>
<polygon fill="#ff0000" stroke="#ff0000" points="155.5,-862 64.5,-862 64.5,-810 155.5,-810 155.5,-862"/>
<text text-anchor="middle" x="110" y="-850" font-family="Arial" font-size="10.00" fill="#ffffff">[kernel.kallsyms]</text>
<text text-anchor="middle" x="110" y="-839" font-family="Arial" font-size="10.00" fill="#ffffff">sys_execve</text>
<text text-anchor="middle" x="110" y="-828" font-family="Arial" font-size="10.00" fill="#ffffff">100.00%</text>
<text text-anchor="middle" x="110" y="-817" font-family="Arial" font-size="10.00" fill="#ffffff">(0.00%)</text>
</g>
<!-- do_syscall_64:[kernel.kallsyms]&#45;&gt;sys_execve:[kernel.kallsyms] -->
<g id="edge6" class="edge">
<title>do_syscall_64:[kernel.kallsyms]&#45;&gt;sys_execve:[kernel.kallsyms]</title>
<path fill="none" stroke="#ff0000" stroke-width="4" d="M110,-890.9252C110,-884.9997 110,-878.6003 110,-872.3353"/>
<polygon fill="#ff0000" stroke="#ff0000" stroke-width="4" points="113.5001,-872.0259 110,-862.0259 106.5001,-872.0259 113.5001,-872.0259"/>
<text text-anchor="middle" x="129.5" y="-874" font-family="Arial" font-size="10.00" fill="#ff0000">100.00%</text>
</g>
<!-- sys_execve:[kernel.kallsyms]&#45;&gt;do_execveat_common.isra.34:[kernel.kallsyms] -->
<g id="edge17" class="edge">
<title>sys_execve:[kernel.kallsyms]&#45;&gt;do_execveat_common.isra.34:[kernel.kallsyms]</title>
<path fill="none" stroke="#ff0000" stroke-width="4" d="M110,-809.9252C110,-803.9997 110,-797.6003 110,-791.3353"/>
<polygon fill="#ff0000" stroke="#ff0000" stroke-width="4" points="113.5001,-791.0259 110,-781.0259 106.5001,-791.0259 113.5001,-791.0259"/>
<text text-anchor="middle" x="129.5" y="-793" font-family="Arial" font-size="10.00" fill="#ff0000">100.00%</text>
</g>
<!-- elf_map:[kernel.kallsyms] -->
<g id="node13" class="node">
<title>elf_map:[kernel.kallsyms]</title>
<polygon fill="#0c5f88" stroke="#0c5f88" points="105.5,-538 14.5,-538 14.5,-486 105.5,-486 105.5,-538"/>
<text text-anchor="middle" x="60" y="-526" font-family="Arial" font-size="10.00" fill="#ffffff">[kernel.kallsyms]</text>
<text text-anchor="middle" x="60" y="-515" font-family="Arial" font-size="10.00" fill="#ffffff">elf_map</text>
<text text-anchor="middle" x="60" y="-504" font-family="Arial" font-size="10.00" fill="#ffffff">16.67%</text>
<text text-anchor="middle" x="60" y="-493" font-family="Arial" font-size="10.00" fill="#ffffff">(0.00%)</text>
</g>
<!-- vm_mmap:[kernel.kallsyms] -->
<g id="node14" class="node">
<title>vm_mmap:[kernel.kallsyms]</title>
<polygon fill="#0c5f88" stroke="#0c5f88" points="105.5,-457 14.5,-457 14.5,-405 105.5,-405 105.5,-457"/>
<text text-anchor="middle" x="60" y="-445" font-family="Arial" font-size="10.00" fill="#ffffff">[kernel.kallsyms]</text>
<text text-anchor="middle" x="60" y="-434" font-family="Arial" font-size="10.00" fill="#ffffff">vm_mmap</text>
<text text-anchor="middle" x="60" y="-423" font-family="Arial" font-size="10.00" fill="#ffffff">16.67%</text>
<text text-anchor="middle" x="60" y="-412" font-family="Arial" font-size="10.00" fill="#ffffff">(0.00%)</text>
</g>
<!-- elf_map:[kernel.kallsyms]&#45;&gt;vm_mmap:[kernel.kallsyms] -->
<g id="edge7" class="edge">
<title>elf_map:[kernel.kallsyms]&#45;&gt;vm_mmap:[kernel.kallsyms]</title>
<path fill="none" stroke="#0c5f88" stroke-width=".67" d="M60,-485.9252C60,-478.1209 60,-469.4945 60,-461.4358"/>
<polygon fill="#0c5f88" stroke="#0c5f88" stroke-width=".67" points="61.4351,-461.1259 60,-457.0259 58.5651,-461.1259 61.4351,-461.1259"/>
<text text-anchor="middle" x="77" y="-469" font-family="Arial" font-size="10.00" fill="#0c5f88">16.67%</text>
</g>
<!-- vm_mmap_pgoff:[kernel.kallsyms] -->
<g id="node19" class="node">
<title>vm_mmap_pgoff:[kernel.kallsyms]</title>
<polygon fill="#0c5f88" stroke="#0c5f88" points="105.5,-376 14.5,-376 14.5,-324 105.5,-324 105.5,-376"/>
<text text-anchor="middle" x="60" y="-364" font-family="Arial" font-size="10.00" fill="#ffffff">[kernel.kallsyms]</text>
<text text-anchor="middle" x="60" y="-353" font-family="Arial" font-size="10.00" fill="#ffffff">vm_mmap_pgoff</text>
<text text-anchor="middle" x="60" y="-342" font-family="Arial" font-size="10.00" fill="#ffffff">16.67%</text>
<text text-anchor="middle" x="60" y="-331" font-family="Arial" font-size="10.00" fill="#ffffff">(0.00%)</text>
</g>
<!-- vm_mmap:[kernel.kallsyms]&#45;&gt;vm_mmap_pgoff:[kernel.kallsyms] -->
<g id="edge18" class="edge">
<title>vm_mmap:[kernel.kallsyms]&#45;&gt;vm_mmap_pgoff:[kernel.kallsyms]</title>
<path fill="none" stroke="#0c5f88" stroke-width=".67" d="M60,-404.9252C60,-397.1209 60,-388.4945 60,-380.4358"/>
<polygon fill="#0c5f88" stroke="#0c5f88" stroke-width=".67" points="61.4351,-380.1259 60,-376.0259 58.5651,-380.1259 61.4351,-380.1259"/>
<text text-anchor="middle" x="77" y="-388" font-family="Arial" font-size="10.00" fill="#0c5f88">16.67%</text>
</g>
<!-- intel_pmu_enable_all:[kernel.kallsyms]&#45;&gt;__intel_pmu_enable_all.constprop.19:[kernel.kallsyms] -->
<g id="edge10" class="edge">
<title>intel_pmu_enable_all:[kernel.kallsyms]&#45;&gt;__intel_pmu_enable_all.constprop.19:[kernel.kallsyms]</title>
<path fill="none" stroke="#e69b04" stroke-width="3.33" d="M128.1713,-161.9252C127.0205,-155.7107 125.7731,-148.9749 124.5592,-142.4195"/>
<polygon fill="#e69b04" stroke="#e69b04" stroke-width="3.33" points="127.6085,-141.3938 122.8196,-133.0259 121.345,-142.5538 127.6085,-141.3938"/>
<text text-anchor="middle" x="144" y="-145" font-family="Arial" font-size="10.00" fill="#e69b04">83.33%</text>
</g>
<!-- load_elf_binary:[kernel.kallsyms]&#45;&gt;elf_map:[kernel.kallsyms] -->
<g id="edge11" class="edge">
<title>load_elf_binary:[kernel.kallsyms]&#45;&gt;elf_map:[kernel.kallsyms]</title>
<path fill="none" stroke="#0c5f88" stroke-width=".67" d="M93.9045,-566.9252C88.9086,-558.8319 83.3669,-549.8544 78.2363,-541.5428"/>
<polygon fill="#0c5f88" stroke="#0c5f88" stroke-width=".67" points="79.4401,-540.761 76.0654,-538.0259 76.9979,-542.2685 79.4401,-540.761"/>
<text text-anchor="middle" x="105" y="-550" font-family="Arial" font-size="10.00" fill="#0c5f88">16.67%</text>
</g>
<!-- setup_new_exec:[kernel.kallsyms] -->
<g id="node17" class="node">
<title>setup_new_exec:[kernel.kallsyms]</title>
<polygon fill="#e69b04" stroke="#e69b04" points="205.5,-538 114.5,-538 114.5,-486 205.5,-486 205.5,-538"/>
<text text-anchor="middle" x="160" y="-526" font-family="Arial" font-size="10.00" fill="#ffffff">[kernel.kallsyms]</text>
<text text-anchor="middle" x="160" y="-515" font-family="Arial" font-size="10.00" fill="#ffffff">setup_new_exec</text>
<text text-anchor="middle" x="160" y="-504" font-family="Arial" font-size="10.00" fill="#ffffff">83.33%</text>
<text text-anchor="middle" x="160" y="-493" font-family="Arial" font-size="10.00" fill="#ffffff">(0.00%)</text>
</g>
<!-- load_elf_binary:[kernel.kallsyms]&#45;&gt;setup_new_exec:[kernel.kallsyms] -->
<g id="edge12" class="edge">
<title>load_elf_binary:[kernel.kallsyms]&#45;&gt;setup_new_exec:[kernel.kallsyms]</title>
<path fill="none" stroke="#e69b04" stroke-width="3.33" d="M126.0955,-566.9252C130.1993,-560.2771 134.6713,-553.0325 138.9813,-546.0503"/>
<polygon fill="#e69b04" stroke="#e69b04" stroke-width="3.33" points="141.8649,-547.4424 143.9346,-538.0259 136.4444,-544.0964 141.8649,-547.4424"/>
<text text-anchor="middle" x="155" y="-550" font-family="Arial" font-size="10.00" fill="#e69b04">83.33%</text>
</g>
<!-- perf_event_exec:[kernel.kallsyms] -->
<g id="node18" class="node">
<title>perf_event_exec:[kernel.kallsyms]</title>
<polygon fill="#e69b04" stroke="#e69b04" points="205.5,-457 114.5,-457 114.5,-405 205.5,-405 205.5,-457"/>
<text text-anchor="middle" x="160" y="-445" font-family="Arial" font-size="10.00" fill="#ffffff">[kernel.kallsyms]</text>
<text text-anchor="middle" x="160" y="-434" font-family="Arial" font-size="10.00" fill="#ffffff">perf_event_exec</text>
<text text-anchor="middle" x="160" y="-423" font-family="Arial" font-size="10.00" fill="#ffffff">83.33%</text>
<text text-anchor="middle" x="160" y="-412" font-family="Arial" font-size="10.00" fill="#ffffff">(0.00%)</text>
</g>
<!-- setup_new_exec:[kernel.kallsyms]&#45;&gt;perf_event_exec:[kernel.kallsyms] -->
<g id="edge16" class="edge">
<title>setup_new_exec:[kernel.kallsyms]&#45;&gt;perf_event_exec:[kernel.kallsyms]</title>
<path fill="none" stroke="#e69b04" stroke-width="3.33" d="M160,-485.9252C160,-479.7107 160,-472.9749 160,-466.4195"/>
<polygon fill="#e69b04" stroke="#e69b04" stroke-width="3.33" points="163.1851,-466.1259 160,-457.0259 156.8151,-466.1259 163.1851,-466.1259"/>
<text text-anchor="middle" x="177" y="-469" font-family="Arial" font-size="10.00" fill="#e69b04">83.33%</text>
</g>
<!-- perf_event_exec:[kernel.kallsyms]&#45;&gt;ctx_resched:[kernel.kallsyms] -->
<g id="edge14" class="edge">
<title>perf_event_exec:[kernel.kallsyms]&#45;&gt;ctx_resched:[kernel.kallsyms]</title>
<path fill="none" stroke="#e69b04" stroke-width="3.33" d="M160,-404.9252C160,-398.7107 160,-391.9749 160,-385.4195"/>
<polygon fill="#e69b04" stroke="#e69b04" stroke-width="3.33" points="163.1851,-385.1259 160,-376.0259 156.8151,-385.1259 163.1851,-385.1259"/>
<text text-anchor="middle" x="177" y="-388" font-family="Arial" font-size="10.00" fill="#e69b04">83.33%</text>
</g>
<!-- vm_mmap_pgoff:[kernel.kallsyms]&#45;&gt;do_mmap:[kernel.kallsyms] -->
<g id="edge19" class="edge">
<title>vm_mmap_pgoff:[kernel.kallsyms]&#45;&gt;do_mmap:[kernel.kallsyms]</title>
<path fill="none" stroke="#0c5f88" stroke-width=".67" d="M60,-323.9252C60,-316.1209 60,-307.4945 60,-299.4358"/>
<polygon fill="#0c5f88" stroke="#0c5f88" stroke-width=".67" points="61.4351,-299.1259 60,-295.0259 58.5651,-299.1259 61.4351,-299.1259"/>
<text text-anchor="middle" x="77" y="-307" font-family="Arial" font-size="10.00" fill="#0c5f88">16.67%</text>
</g>
</g>
</svg>
