<?xml version="1.0" encoding="UTF-8" standalone="no"?>
<!DOCTYPE svg PUBLIC "-//W3C//DTD SVG 1.1//EN"
 "http://www.w3.org/Graphics/SVG/1.1/DTD/svg11.dtd">
<!-- Generated by graphviz version 2.40.1 (20161225.0304)
 -->
<!-- Title: %3 Pages: 1 -->
<svg width="429pt" height="152pt"
 viewBox="0.00 0.00 429.00 152.00" xmlns="http://www.w3.org/2000/svg" xmlns:xlink="http://www.w3.org/1999/xlink">
<g id="graph0" class="graph" transform="scale(1 1) rotate(0) translate(4 148)">
<title>%3</title>
<polygon fill="#ffffff" stroke="transparent" points="-4,4 -4,-148 425,-148 425,4 -4,4"/>
<!-- 1 -->
<g id="node1" class="node">
<title>1</title>
<polygon fill="#ff0000" stroke="#ff0000" points="61,-52 0,-52 0,0 61,0 61,-52"/>
<text text-anchor="middle" x="30.5" y="-40" font-family="Arial" font-size="10.00" fill="#ffffff">new_node</text>
<text text-anchor="middle" x="30.5" y="-29" font-family="Arial" font-size="10.00" fill="#ffffff">100.00%</text>
<text text-anchor="middle" x="30.5" y="-18" font-family="Arial" font-size="10.00" fill="#ffffff">(100.00%)</text>
<text text-anchor="middle" x="30.5" y="-7" font-family="Arial" font-size="10.00" fill="#ffffff">45×</text>
</g>
<!-- 2 -->
<g id="node2" class="node">
<title>2</title>
<polygon fill="#ff0000" stroke="#ff0000" points="61,-144 0,-144 0,-92 61,-92 61,-144"/>
<text text-anchor="middle" x="30.5" y="-132" font-family="Arial" font-size="10.00" fill="#ffffff">insert</text>
<text text-anchor="middle" x="30.5" y="-121" font-family="Arial" font-size="10.00" fill="#ffffff">100.00%</text>
<text text-anchor="middle" x="30.5" y="-110" font-family="Arial" font-size="10.00" fill="#ffffff">(100.00%)</text>
<text text-anchor="middle" x="30.5" y="-99" font-family="Arial" font-size="10.00" fill="#ffffff">290×</text>
</g>
<!-- 2&#45;&gt;1 -->
<g id="edge1" class="edge">
<title>2&#45;&gt;1</title>
<path fill="none" stroke="#ff0000" stroke-width="4" d="M30.5,-91.8826C30.5,-82.6565 30.5,-72.1091 30.5,-62.1983"/>
<polygon fill="#ff0000" stroke="#ff0000" stroke-width="4" points="34.0001,-62.1827 30.5,-52.1827 27.0001,-62.1828 34.0001,-62.1827"/>
<text text-anchor="middle" x="50" y="-75" font-family="Arial" font-size="10.00" fill="#ff0000">100.00%</text>
<text text-anchor="middle" x="50" y="-64" font-family="Arial" font-size="10.00" fill="#ff0000">44×</text>
</g>
<!-- 2&#45;&gt;2 -->
<g id="edge2" class="edge">
<title>2&#45;&gt;2</title>
<path fill="none" stroke="#ff0000" stroke-width="4" d="M61.3042,-126.0164C66.4496,-124.8948 70,-122.2227 70,-118 70,-117.2083 69.8752,-116.471 69.6384,-115.7883"/>
<polygon fill="#ff0000" stroke="#ff0000" stroke-width="4" points="71.5104,-112.8269 61.3042,-109.9836 67.5097,-118.5709 71.5104,-112.8269"/>
<text text-anchor="middle" x="81" y="-115.5" font-family="Arial" font-size="10.00" fill="#ff0000">246×</text>
</g>
<!-- 3 -->
<g id="node3" class="node">
<title>3</title>
<polygon fill="#ff0000" stroke="#ff0000" points="179,-52 102,-52 102,0 179,0 179,-52"/>
<text text-anchor="middle" x="140.5" y="-40" font-family="Arial" font-size="10.00" fill="#ffffff">find_minimum</text>
<text text-anchor="middle" x="140.5" y="-29" font-family="Arial" font-size="10.00" fill="#ffffff">100.00%</text>
<text text-anchor="middle" x="140.5" y="-18" font-family="Arial" font-size="10.00" fill="#ffffff">(100.00%)</text>
<text text-anchor="middle" x="140.5" y="-7" font-family="Arial" font-size="10.00" fill="#ffffff">12×</text>
</g>
<!-- 3&#45;&gt;3 -->
<g id="edge3" class="edge">
<title>3&#45;&gt;3</title>
<path fill="none" stroke="#ff0000" stroke-width="4" d="M179.0797,-33.6964C184.4263,-32.4287 188,-29.8633 188,-26 188,-25.2756 187.8744,-24.5969 187.635,-23.9638"/>
<polygon fill="#ff0000" stroke="#ff0000" stroke-width="4" points="189.3509,-20.9024 179.0797,-18.3036 185.4884,-26.7404 189.3509,-20.9024"/>
<text text-anchor="middle" x="194" y="-23.5" font-family="Arial" font-size="10.00" fill="#ff0000">7×</text>
</g>
<!-- 4 -->
<g id="node4" class="node">
<title>4</title>
<polygon fill="#ff0000" stroke="#ff0000" points="171,-144 110,-144 110,-92 171,-92 171,-144"/>
<text text-anchor="middle" x="140.5" y="-132" font-family="Arial" font-size="10.00" fill="#ffffff">delete</text>
<text text-anchor="middle" x="140.5" y="-121" font-family="Arial" font-size="10.00" fill="#ffffff">100.00%</text>
<text text-anchor="middle" x="140.5" y="-110" font-family="Arial" font-size="10.00" fill="#ffffff">(100.00%)</text>
<text text-anchor="middle" x="140.5" y="-99" font-family="Arial" font-size="10.00" fill="#ffffff">21×</text>
</g>
<!-- 4&#45;&gt;3 -->
<g id="edge4" class="edge">
<title>4&#45;&gt;3</title>
<path fill="none" stroke="#ff0000" stroke-width="4" d="M140.5,-91.8826C140.5,-82.6565 140.5,-72.1091 140.5,-62.1983"/>
<polygon fill="#ff0000" stroke="#ff0000" stroke-width="4" points="144.0001,-62.1827 140.5,-52.1827 137.0001,-62.1828 144.0001,-62.1827"/>
<text text-anchor="middle" x="160" y="-75" font-family="Arial" font-size="10.00" fill="#ff0000">100.00%</text>
<text text-anchor="middle" x="160" y="-64" font-family="Arial" font-size="10.00" fill="#ff0000">3×</text>
</g>
<!-- 4&#45;&gt;4 -->
<g id="edge5" class="edge">
<title>4&#45;&gt;4</title>
<path fill="none" stroke="#ff0000" stroke-width="4" d="M171.3042,-126.0164C176.4496,-124.8948 180,-122.2227 180,-118 180,-117.2083 179.8752,-116.471 179.6384,-115.7883"/>
<polygon fill="#ff0000" stroke="#ff0000" stroke-width="4" points="181.5104,-112.8269 171.3042,-109.9836 177.5097,-118.5709 181.5104,-112.8269"/>
<text text-anchor="middle" x="188.5" y="-115.5" font-family="Arial" font-size="10.00" fill="#ff0000">17×</text>
</g>
<!-- 5 -->
<g id="node5" class="node">
<title>5</title>
<polygon fill="#ff0000" stroke="#ff0000" points="276,-144 215,-144 215,-92 276,-92 276,-144"/>
<text text-anchor="middle" x="245.5" y="-132" font-family="Arial" font-size="10.00" fill="#ffffff">search</text>
<text text-anchor="middle" x="245.5" y="-121" font-family="Arial" font-size="10.00" fill="#ffffff">100.00%</text>
<text text-anchor="middle" x="245.5" y="-110" font-family="Arial" font-size="10.00" fill="#ffffff">(100.00%)</text>
<text text-anchor="middle" x="245.5" y="-99" font-family="Arial" font-size="10.00" fill="#ffffff">29×</text>
</g>
<!-- 5&#45;&gt;5 -->
<g id="edge6" class="edge">
<title>5&#45;&gt;5</title>
<path fill="none" stroke="#ff0000" stroke-width="4" d="M276.3042,-126.0164C281.4496,-124.8948 285,-122.2227 285,-118 285,-117.2083 284.8752,-116.471 284.6384,-115.7883"/>
<polygon fill="#ff0000" stroke="#ff0000" stroke-width="4" points="286.5104,-112.8269 276.3042,-109.9836 282.5097,-118.5709 286.5104,-112.8269"/>
<text text-anchor="middle" x="293.5" y="-115.5" font-family="Arial" font-size="10.00" fill="#ff0000">26×</text>
</g>
<!-- 6 -->
<g id="node6" class="node">
<title>6</title>
<polygon fill="#ff0000" stroke="#ff0000" points="381,-144 320,-144 320,-92 381,-92 381,-144"/>
<text text-anchor="middle" x="350.5" y="-132" font-family="Arial" font-size="10.00" fill="#ffffff">inorder</text>
<text text-anchor="middle" x="350.5" y="-121" font-family="Arial" font-size="10.00" fill="#ffffff">100.00%</text>
<text text-anchor="middle" x="350.5" y="-110" font-family="Arial" font-size="10.00" fill="#ffffff">(100.00%)</text>
<text text-anchor="middle" x="350.5" y="-99" font-family="Arial" font-size="10.00" fill="#ffffff">174×</text>
</g>
<!-- 6&#45;&gt;6 -->
<g id="edge7" class="edge">
<title>6&#45;&gt;6</title>
<path fill="none" stroke="#ff0000" stroke-width="4" d="M381.3042,-126.0164C386.4496,-124.8948 390,-122.2227 390,-118 390,-117.2083 389.8752,-116.471 389.6384,-115.7883"/>
<polygon fill="#ff0000" stroke="#ff0000" stroke-width="4" points="391.5104,-112.8269 381.3042,-109.9836 387.5097,-118.5709 391.5104,-112.8269"/>
<text text-anchor="middle" x="401" y="-115.5" font-family="Arial" font-size="10.00" fill="#ff0000">172×</text>
</g>
</g>
</svg>
